<!-- icon666.com - MILLIONS OF FREE VECTOR ICONS --><svg viewBox="0 0 48 48" xmlns="http://www.w3.org/2000/svg"><g id="_27._Moped" data-name="27. Moped"><path d="m32 13h-5a1 1 0 0 1 0-2h5a1 1 0 0 1 0 2z" fill="#425b72"></path><path d="m41 40a6 6 0 0 1 -6-6c1.34 0 2.92.16 4-1.5a3.36 3.36 0 0 1 2.8-1.5h4.38a6 6 0 0 1 -5.18 9z" fill="#374f68"></path><path d="m46.12 37.12a6 6 0 0 1 -8.84-3.31 3.24 3.24 0 0 0 1.72-1.31 3.36 3.36 0 0 1 2.8-1.5h4.38a6 6 0 0 1 -.06 6.12z" fill="#425b72"></path><path d="m9 40a6 6 0 0 1 -5.19-9h10.38a6 6 0 0 1 -5.19 9z" fill="#374f68"></path><path d="m14.12 37.12a6 6 0 0 1 -9-6.12h9.1a6 6 0 0 1 -.1 6.12z" fill="#425b72"></path><path d="m11 34a2 2 0 1 1 -2.82-1.82 2 2 0 0 1 2.82 1.82z" fill="#dad7e5"></path><path d="m10.82 34.82a2 2 0 0 1 -2.64-2.64 2 2 0 0 1 2.64 2.64z" fill="#edebf2"></path><path d="m43 34a2 2 0 1 1 -2.82-1.82 2 2 0 0 1 2.82 1.82z" fill="#dad7e5"></path><path d="m42.82 34.82a2 2 0 0 1 -2.64-2.64 2 2 0 0 1 2.64 2.64z" fill="#edebf2"></path><path d="m47 30.5-.87.5c-3.92 0-5.85-.43-7.13 1.5s-3 1.5-5.06 1.5c0-7.13 9.51-9.7 13.06-3.5z" fill="#ffba55"></path><path d="m47 30.5-.87.5c-4.61 0-4.44 0-4.74 0a3.34 3.34 0 0 0 -2.39 1.5 2.89 2.89 0 0 1 -.38.47 1.9 1.9 0 0 1 -2.21-2.48 6.8 6.8 0 0 1 2.45-3.16 7 7 0 0 1 8.14 3.17z" fill="#ffde76"></path><path d="m22.4 21.4c-.88.86-.67.6-13 .6a2.43 2.43 0 0 1 0-4.85c.95 0-3.95-.25 11.66.73a2.07 2.07 0 0 1 1.34 3.52z" fill="#a87e6b"></path><path d="m23 19.94c0 .1-10.48.06-10.38.06a2.51 2.51 0 0 1 -2.62-2.81l11 .69a2.07 2.07 0 0 1 2 2.06z" fill="#be927c"></path><path d="m38 9v4a1 1 0 0 1 -1 1h-5a1 1 0 0 1 -1-1 5 5 0 0 1 2.61-4.39 6 6 0 0 1 3.39-.61 1 1 0 0 1 1 1z" fill="#ffba55"></path><path d="m38 9v3h-2.31a2.32 2.32 0 0 1 -2.08-3.39 4.93 4.93 0 0 1 2.39-.61h1a1 1 0 0 1 1 1z" fill="#fc6"></path><path d="m40.21 27a7 7 0 0 0 -6.27 7h-14.94a4.39 4.39 0 0 0 -4.16-3h-12.72a1 1 0 0 1 -1-1.11l.39-3.44a5 5 0 0 1 5-4.45h14.49l2 8h8a15.06 15.06 0 0 0 1.51-14.86l-.51-1.14h4c2.19 4.37 4 7.44 4.21 13z" fill="#ffba55"></path><path d="m40.21 27a7 7 0 0 0 -6 5h-13.21a4.39 4.39 0 0 0 -4.16-3h-7.28a5.51 5.51 0 0 1 -5.56-6.08c.17-1.22 2.51-.92 17-.92l2 8h8a15.09 15.09 0 0 0 1.51-14.86l-.51-1.14h4c2.14 4.29 4.1 7.57 4.21 13z" fill="#fc6"></path><path d="m42 11a2.35 2.35 0 0 1 -2.34 2.34 6.42 6.42 0 0 1 -1.66-.34v-4l1-.25a2.35 2.35 0 0 1 3 2.25z" fill="#c6c3d8"></path><path d="m42 10.92a2.33 2.33 0 0 1 -.26 1.15 2.82 2.82 0 0 1 -2.74-2.81v-.51a2.35 2.35 0 0 1 3 2.17z" fill="#dad7e5"></path><path d="m11 28h-4a1 1 0 0 1 0-2h4a1 1 0 0 1 0 2z" fill="#edebf2"></path></g></svg>