<?xml version="1.0" standalone="no"?>
<!DOCTYPE svg PUBLIC "-//W3C//DTD SVG 20010904//EN"
 "http://www.w3.org/TR/2001/REC-SVG-20010904/DTD/svg10.dtd">
<svg version="1.0" xmlns="http://www.w3.org/2000/svg"
 width="1280.000000pt" height="819.000000pt" viewBox="0 0 1280.000000 819.000000"
 preserveAspectRatio="xMidYMid meet">
<metadata>
Created by potrace 1.15, written by Peter Selinger 2001-2017
</metadata>
<g transform="translate(0.000000,819.000000) scale(0.100000,-0.100000)"
fill="#000000" stroke="none">
<path d="M9395 8183 c-152 -13 -255 -37 -370 -85 -66 -27 -148 -67 -182 -89
-40 -25 -74 -39 -95 -39 -38 0 -409 -149 -439 -176 -11 -10 -19 -30 -19 -49 0
-20 -17 -60 -48 -111 -116 -190 -128 -204 -172 -204 -42 0 -78 -19 -84 -46 -9
-34 -45 -54 -150 -84 -87 -25 -92 -28 -111 -65 -10 -22 -21 -67 -23 -100 -4
-58 -2 -63 37 -112 30 -38 51 -55 78 -62 117 -30 134 -25 158 49 19 57 34 68
102 76 72 9 99 22 119 60 21 39 40 42 100 15 53 -24 67 -46 149 -221 37 -80
80 -161 95 -180 15 -19 30 -48 34 -65 4 -16 32 -73 61 -125 71 -127 104 -201
250 -556 278 -678 314 -789 302 -943 -7 -84 -33 -166 -97 -311 -71 -159 -317
-732 -412 -960 -171 -408 -228 -510 -352 -628 -86 -82 -190 -138 -287 -154
-58 -10 -86 -8 -284 25 -121 20 -254 41 -295 47 -46 7 -90 20 -117 36 -39 22
-150 53 -195 54 -12 0 -24 -24 -46 -87 l-29 -88 -394 0 c-409 0 -438 3 -579
46 -152 47 -326 153 -435 264 -85 86 -206 278 -240 379 -32 94 -65 283 -65
367 0 83 7 89 114 89 73 0 76 1 91 30 11 21 25 31 50 36 19 3 40 13 47 21 18
22 -15 43 -69 43 -24 0 -52 6 -64 13 -17 10 -27 8 -69 -15 -28 -16 -57 -28
-65 -28 -23 0 -19 58 8 110 26 52 52 61 102 34 31 -17 35 -17 59 -1 34 22 34
60 0 93 -25 26 -27 26 -86 7 -71 -22 89 210 346 504 49 56 92 100 96 98 4 -3
10 -31 14 -64 7 -59 8 -61 44 -72 20 -6 71 -13 112 -15 60 -4 82 -2 109 13 57
30 73 62 82 160 27 308 21 421 -28 522 l-26 55 16 75 c9 42 30 128 47 191 69
260 86 409 55 469 -9 18 -31 35 -57 46 -47 19 -236 39 -523 55 -99 5 -225 14
-280 20 -55 5 -344 10 -642 10 l-542 0 -40 40 c-38 39 -42 40 -105 40 -61 0
-67 -2 -109 -38 l-45 -39 -193 -6 c-236 -8 -873 7 -1139 27 -535 40 -786 44
-848 12 -39 -20 -77 -67 -92 -112 -21 -61 -5 -146 69 -379 224 -711 213 -634
122 -813 l-62 -123 -86 -62 c-165 -119 -460 -360 -503 -411 -21 -26 -98 -62
-159 -75 -30 -6 -111 -14 -180 -17 -112 -5 -134 -10 -193 -36 -61 -28 -73 -30
-140 -24 -102 9 -128 0 -154 -55 -12 -24 -40 -61 -63 -81 -22 -20 -41 -43 -41
-52 0 -9 -18 -20 -47 -28 l-48 -14 -33 -203 c-22 -142 -29 -207 -22 -216 6 -7
42 -16 80 -19 54 -6 70 -11 75 -25 4 -14 21 -21 63 -27 l57 -9 3 -42 c3 -35 0
-42 -18 -48 -23 -7 -49 -60 -110 -215 -18 -47 -55 -136 -81 -198 -27 -63 -49
-118 -49 -123 0 -5 -45 -112 -101 -237 -105 -236 -116 -268 -101 -291 19 -27
53 -1 78 57 53 122 66 142 90 142 17 0 30 -11 46 -40 14 -24 33 -43 48 -47 14
-4 104 -1 200 6 312 22 347 24 353 15 3 -5 -6 -50 -19 -99 -60 -224 -74 -515
-35 -736 41 -237 146 -487 289 -689 84 -120 250 -286 366 -368 98 -69 290
-166 406 -205 523 -178 1091 -103 1542 204 123 84 324 285 407 407 73 108 159
282 196 400 29 91 65 252 65 294 0 15 4 29 9 33 14 8 31 -29 31 -68 0 -31 6
-39 46 -66 58 -38 107 -45 263 -38 164 8 227 22 461 106 192 68 254 86 378
111 36 7 92 30 135 54 l72 41 0 59 c-1 69 -20 91 -90 101 -26 4 -52 16 -65 30
-17 18 -46 27 -138 44 -176 31 -299 50 -374 57 -38 3 -68 9 -68 14 0 16 167
21 310 10 80 -7 152 -11 160 -10 8 1 247 4 531 6 l517 5 26 -23 c21 -19 65
-136 232 -623 182 -530 207 -608 209 -670 3 -90 39 -236 75 -300 15 -27 31
-70 35 -95 18 -124 36 -140 150 -139 110 1 127 7 138 49 11 44 -7 117 -38 150
-29 30 -41 58 -105 243 -36 102 -57 148 -75 162 -20 17 -52 100 -164 435 -77
228 -164 489 -195 579 -31 90 -56 174 -56 186 l0 22 278 8 c152 5 454 7 671 7
430 -2 668 8 782 33 125 28 394 170 521 276 93 78 206 238 313 443 74 141 320
668 365 781 59 148 54 143 199 217 126 65 191 84 191 56 0 -25 -41 -74 -143
-173 -184 -177 -302 -349 -477 -690 -68 -132 -93 -197 -204 -538 -142 -435
-141 -423 -61 -462 81 -39 313 -30 515 21 52 13 95 24 95 24 0 0 -2 -84 -3
-187 -2 -104 1 -230 8 -283 32 -262 139 -534 302 -765 80 -114 258 -292 371
-372 488 -344 1177 -400 1693 -138 538 274 859 735 923 1327 35 319 -21 637
-164 936 -86 179 -152 271 -308 429 -77 79 -138 145 -135 148 2 3 60 16 128
30 68 14 155 35 194 46 114 34 245 107 260 145 10 27 -11 62 -43 69 -21 4 -46
27 -87 78 -132 165 -350 365 -492 452 -55 33 -71 50 -99 101 -26 48 -43 66
-83 88 -46 25 -90 71 -90 94 0 18 -59 60 -112 80 -123 46 -422 76 -618 62 -69
-5 -138 -13 -155 -19 -30 -10 -137 -29 -210 -38 -30 -3 -49 -14 -77 -44 -21
-21 -45 -39 -55 -39 -10 0 -63 -14 -117 -30 -130 -39 -136 -39 -136 6 0 20 8
48 19 62 21 31 28 68 41 216 l9 110 -47 55 c-75 89 -155 165 -206 195 -29 17
-85 35 -144 47 -108 22 -166 51 -207 104 -35 47 -201 388 -303 626 -44 102
-114 257 -155 345 -41 87 -95 207 -120 265 -25 59 -64 142 -85 185 -37 74 -44
81 -96 107 -55 26 -57 28 -51 60 5 26 2 37 -19 56 -60 57 -18 128 111 188 78
36 132 41 173 18 49 -28 177 -10 280 39 l25 12 8 302 c6 263 10 311 27 362 11
33 20 86 20 119 0 52 -2 59 -22 65 -23 6 -180 5 -253 -1z m235 -78 c0 -19 -16
-78 -36 -132 -20 -54 -52 -152 -71 -218 -32 -109 -36 -134 -40 -278 l-5 -158
-32 3 -31 3 -2 180 c-2 99 0 277 5 395 l7 214 25 13 c14 7 60 13 103 13 l77 0
0 -35z m-256 3 c13 -19 16 -61 16 -263 0 -132 -3 -304 -7 -382 -7 -159 -6
-157 -76 -128 -54 23 -80 19 -183 -26 -124 -55 -164 -100 -164 -183 0 -51 -4
-61 -45 -115 -65 -85 -126 -134 -234 -188 l-94 -47 -22 28 c-24 31 -165 292
-185 344 -7 18 -11 35 -8 37 5 5 65 -11 151 -39 40 -13 47 -13 47 -1 0 8 -17
23 -38 34 -39 20 -171 51 -217 51 -15 0 -25 6 -25 14 0 37 190 172 395 281 50
27 102 60 118 73 34 32 36 69 2 84 -21 10 -45 -1 -227 -99 -112 -61 -236 -125
-277 -143 -71 -31 -151 -50 -151 -36 0 10 96 162 147 234 50 70 59 76 283 172
90 39 167 79 203 107 144 111 387 211 519 212 48 1 59 -3 72 -21z m-672 -206
c-33 -24 -345 -161 -355 -155 -23 14 71 63 258 134 109 42 132 47 97 21z m878
-288 c0 -179 -5 -199 -34 -129 -26 60 -28 116 -11 195 17 72 30 110 40 110 3
0 5 -79 5 -176z m-796 23 c-6 -18 -84 -67 -189 -120 -55 -27 -143 -87 -228
-153 -76 -60 -143 -109 -149 -109 -6 0 -19 22 -30 49 -22 58 -25 55 87 92 44
15 166 73 272 130 159 86 219 117 240 123 1 1 0 -5 -3 -12z m762 -222 c19 -47
18 -57 -8 -53 -25 3 -33 26 -24 64 8 32 14 30 32 -11z m-1434 -56 c36 -26 58
-74 58 -128 0 -42 -17 -91 -32 -91 -5 0 -4 9 2 19 30 56 -8 163 -67 191 -18 8
-33 18 -33 23 0 15 43 6 72 -14z m-24 -95 c31 -63 32 -67 16 -85 -9 -10 -37
-30 -61 -45 -48 -28 -73 -22 -73 17 0 11 -18 39 -40 63 l-40 43 23 20 c22 21
97 52 127 53 10 0 29 -27 48 -66z m-241 -80 c53 -33 78 -115 49 -159 -31 -47
-101 -22 -135 48 -26 55 -27 91 0 118 21 21 44 20 86 -7z m1136 -186 c-135
-171 -183 -303 -183 -501 0 -118 23 -202 118 -427 247 -589 323 -772 341 -827
46 -138 45 -257 -5 -430 -55 -194 -508 -1542 -548 -1632 -23 -54 -57 -119 -76
-146 -161 -233 -441 -425 -720 -491 -70 -17 -188 -18 -1835 -21 -1435 -3
-1757 -1 -1747 9 11 11 326 12 1655 9 1713 -3 1800 -2 1974 39 194 46 460 219
598 389 111 137 118 156 513 1336 105 314 196 598 203 633 28 150 -3 258 -239
817 -260 616 -257 608 -249 785 7 134 24 208 72 305 34 70 107 165 127 165 7
0 7 -4 1 -12z m33 -90 c41 -80 62 -164 59 -242 -2 -42 -5 -80 -8 -82 -3 -3 -1
-19 3 -35 7 -23 5 -29 -6 -29 -22 0 -28 -28 -14 -70 11 -35 11 -41 -9 -68 -11
-16 -32 -32 -45 -36 -23 -6 -23 -6 -11 -66 7 -33 9 -60 5 -60 -4 0 -17 20 -28
44 -13 26 -35 51 -55 64 -50 29 -72 99 -71 222 1 99 22 176 79 290 19 38 69
100 81 100 2 0 11 -14 20 -32z m178 -275 c46 -109 127 -306 181 -438 54 -132
132 -314 173 -405 115 -256 125 -282 130 -336 3 -38 0 -54 -13 -67 -9 -9 -20
-17 -25 -17 -9 0 -48 91 -108 255 -23 61 -109 292 -192 515 -277 741 -340 951
-146 493z m13 88 c30 -64 92 -199 138 -301 46 -102 132 -288 193 -415 119
-250 199 -443 204 -490 2 -24 -1 -30 -15 -30 -15 0 -74 130 -307 682 -269 639
-341 827 -213 554z m-442 37 c-6 -29 -35 -235 -35 -250 0 -39 -73 77 -92 145
-15 56 -5 70 67 103 63 29 66 29 60 2z m-4537 -200 c6 -24 14 -92 17 -153 3
-60 10 -166 15 -235 6 -69 13 -170 16 -225 l7 -101 -44 0 c-24 0 -52 -3 -61
-8 -22 -10 -21 -18 -59 397 -25 268 -29 340 -19 352 8 10 31 15 65 15 l52 0
11 -42z m-1898 2 c113 -5 250 -13 305 -19 229 -24 588 -36 993 -34 232 1 422
-1 422 -5 0 -4 4 -34 10 -67 18 -116 50 -514 50 -628 0 -68 5 -127 12 -142 7
-15 8 -29 2 -34 -18 -17 -529 -47 -1709 -101 -121 -5 -259 -10 -306 -10 l-86
0 -18 71 c-9 40 -43 146 -75 238 -32 91 -69 213 -84 271 -14 58 -37 139 -51
180 -34 100 -42 177 -22 216 36 70 87 86 237 79 63 -3 207 -10 320 -15z m3030
-51 c452 -16 786 -46 911 -79 33 -9 39 -15 45 -47 11 -58 -13 -211 -68 -428
-28 -110 -54 -207 -58 -215 -7 -13 -154 -22 -927 -61 -505 -25 -919 -45 -920
-45 -3 2 -64 869 -61 872 2 1 100 6 218 11 234 10 437 8 860 -8z m3845 -101
c20 -51 91 -241 157 -423 65 -181 145 -402 178 -490 74 -205 93 -295 93 -455
0 -135 -10 -194 -68 -407 -60 -218 -94 -312 -172 -478 -42 -88 -104 -226 -139
-307 -35 -81 -97 -214 -138 -295 -40 -82 -95 -197 -121 -258 -56 -129 -100
-203 -183 -311 -82 -108 -128 -149 -262 -239 -146 -97 -262 -154 -331 -162
-50 -6 -53 -5 -40 10 7 9 48 38 90 63 146 89 313 251 396 383 67 109 114 227
263 676 88 264 172 521 187 570 15 50 56 166 91 259 87 225 116 349 116 486 0
156 -18 218 -142 506 -262 604 -270 631 -167 586 45 -20 49 -27 62 -90 7 -33
37 -58 57 -46 19 12 2 162 -26 217 -21 43 -22 48 -6 44 38 -10 50 10 50 86 1
46 6 79 15 91 10 13 11 25 4 43 -10 27 -11 33 -5 33 2 0 21 -42 41 -92z m-160
-117 c3 -5 1 -12 -5 -16 -5 -3 -10 1 -10 9 0 18 6 21 15 7z m-4791 -527 c21
-8 21 -62 0 -85 -16 -18 -18 -18 -45 -2 -62 37 -22 113 45 87z m1936 -102 c31
-32 60 -115 60 -173 0 -30 -5 -41 -24 -51 -14 -7 -79 -60 -146 -118 -159 -137
-433 -451 -560 -640 -113 -168 -148 -239 -176 -355 -24 -101 -26 -123 -21
-255 8 -260 60 -431 192 -635 69 -107 152 -190 272 -272 140 -96 334 -183 407
-183 14 0 26 -4 26 -10 0 -13 -84 -78 -195 -153 -49 -33 -126 -86 -170 -118
-143 -103 -148 -104 -385 -101 -478 6 -577 10 -598 21 -32 17 -62 13 -123 -17
l-56 -28 -234 1 -234 2 -32 53 c-52 85 -42 120 40 155 52 22 74 20 375 -30
149 -25 293 -46 319 -48 l48 -2 5 80 c5 80 5 80 32 77 35 -4 68 14 68 37 0 24
7 30 32 23 19 -5 20 -10 14 -77 -6 -62 -4 -74 10 -79 24 -9 33 0 70 77 41 85
45 138 12 161 -12 9 -31 16 -41 16 -11 0 -41 24 -68 53 -43 46 -49 57 -49 97
0 25 9 83 20 130 61 262 86 646 55 826 -65 371 -269 654 -588 816 -310 156
-931 251 -1437 219 -357 -23 -896 -136 -1107 -231 -129 -59 -403 -229 -568
-354 -343 -259 -720 -769 -1017 -1374 -66 -136 -126 -250 -132 -254 -20 -14
-96 -9 -96 5 0 25 36 120 124 325 48 112 102 243 121 291 48 128 87 200 138
256 197 221 444 509 527 615 127 163 373 397 565 537 206 151 232 163 384 179
453 50 1278 219 1356 278 19 15 19 15 -12 16 -17 0 -91 -18 -165 -40 -73 -22
-241 -61 -373 -86 -132 -25 -268 -52 -303 -60 -35 -8 -68 -14 -75 -13 -7 2
-37 -3 -67 -9 -64 -14 -258 -38 -377 -47 -59 -5 -83 -3 -83 5 0 15 99 253 109
263 9 9 301 26 761 46 463 21 685 33 860 47 102 8 309 19 460 24 151 5 401 18
555 29 154 11 413 22 575 25 266 5 568 23 770 45 119 13 120 13 150 -17z
m3637 -258 c47 -56 141 -104 220 -113 l58 -6 3 -45 c12 -204 47 -321 142 -477
28 -45 50 -87 50 -93 0 -16 -459 -236 -712 -341 l-68 -28 0 23 c0 23 64 250
94 335 9 24 25 109 37 189 21 142 22 273 3 413 -5 40 -2 50 21 78 15 17 32 30
38 28 5 -1 26 -34 46 -71 37 -71 80 -114 100 -101 8 4 -3 24 -32 58 -57 68
-94 167 -70 190 15 15 34 5 70 -39z m-3560 -30 c5 -15 -28 -27 -40 -15 -5 5
-6 14 -2 21 8 13 37 9 42 -6z m-67 -103 c-1 -60 -26 -201 -39 -214 -5 -5 -32
-7 -65 -3 l-56 7 0 37 c0 27 13 57 45 107 25 38 43 76 40 84 -3 8 4 25 16 38
21 21 24 22 41 6 13 -11 18 -30 18 -62z m47 -3 c-3 -8 -6 -5 -6 6 -1 11 2 17
5 13 3 -3 4 -12 1 -19z m-220 -85 c-36 -57 -43 -75 -39 -104 7 -53 34 -69 120
-69 91 0 108 14 117 97 3 32 10 67 16 78 6 14 7 1 3 -40 -7 -73 -31 -126 -64
-142 -35 -18 -160 -16 -184 2 -20 15 -33 95 -22 138 6 25 85 121 93 113 3 -2
-15 -36 -40 -73z m4217 12 c3 -8 15 -15 26 -15 22 0 28 -16 8 -22 -9 -3 -10
-14 -3 -44 10 -38 11 -39 53 -36 23 1 42 0 42 -3 0 -2 -14 -12 -31 -21 -29
-14 -31 -19 -26 -55 7 -54 22 -70 53 -59 27 11 31 2 9 -26 -19 -25 -19 -68 1
-106 12 -23 13 -29 2 -26 -17 6 -58 104 -99 238 -17 58 -38 124 -45 148 -7 23
-9 42 -5 42 5 0 11 -7 15 -15z m-6589 -76 c66 -5 179 -19 250 -29 431 -64 601
-131 866 -346 117 -95 216 -247 278 -425 48 -137 61 -231 61 -428 0 -266 -33
-518 -105 -816 -19 -77 -39 -162 -45 -190 -13 -59 -34 -85 -69 -85 -23 0 -373
65 -409 76 -10 3 -8 11 7 33 27 37 27 95 2 120 -61 61 -254 17 -327 -74 l-31
-39 -159 17 c-247 26 -549 37 -1044 36 -596 0 -1337 -15 -1424 -29 -68 -10
-410 -33 -776 -50 -102 -5 -210 -14 -240 -19 -71 -12 -167 -14 -174 -2 -24 38
306 686 453 890 119 167 357 412 516 533 303 229 828 442 1277 517 182 31 421
45 758 45 279 0 340 -3 531 -27 119 -14 256 -35 306 -46 317 -69 555 -261 668
-539 59 -146 91 -418 75 -649 -13 -187 -29 -279 -85 -499 -25 -96 -45 -187
-45 -202 1 -26 1 -26 16 -7 21 29 52 138 85 309 47 237 60 349 60 527 1 356
-60 573 -215 765 -145 180 -257 252 -490 313 -190 50 -581 84 -971 85 -279 1
-453 -11 -660 -44 -66 -11 -172 -26 -235 -35 -186 -26 -521 -151 -768 -288
-64 -36 -144 -78 -177 -95 -33 -17 -104 -64 -159 -106 -128 -99 -133 -100 -57
-8 89 107 376 341 544 443 157 96 334 172 572 244 410 125 843 165 1340 124z
m6586 -192 c45 -139 34 -156 -25 -38 -38 75 -52 121 -60 201 l-6 55 31 -65
c17 -35 44 -104 60 -153z m-1041 -64 c-17 -65 -111 -359 -209 -653 -99 -294
-196 -589 -216 -655 -96 -310 -208 -529 -329 -643 -73 -69 -303 -218 -384
-248 -35 -14 -66 -23 -69 -21 -8 8 18 60 57 115 45 62 51 108 25 181 -11 32
-12 43 -2 45 179 51 292 138 411 315 72 106 126 221 256 542 49 119 99 238
113 265 14 27 50 108 80 179 30 72 78 177 105 235 56 119 128 299 163 408 35
110 35 69 -1 -65z m2359 -110 c51 -8 118 -24 150 -34 61 -21 131 -63 131 -79
0 -12 6 -13 -210 40 -140 35 -264 54 -480 77 l-75 8 90 6 c121 8 280 1 394
-18z m-109 -73 c280 -57 456 -112 516 -164 72 -62 30 -57 -131 15 -147 65
-245 99 -288 99 -11 0 -79 14 -151 31 -72 17 -160 35 -196 39 -56 8 -51 8 40
5 58 -2 152 -14 210 -25z m-165 -45 c395 -69 751 -204 937 -355 130 -106 393
-365 413 -407 21 -44 14 -59 -41 -90 -59 -33 -267 -100 -367 -117 -49 -9 -198
-20 -331 -26 -628 -25 -982 -124 -1422 -395 -156 -96 -365 -240 -544 -375
-305 -229 -418 -290 -652 -355 -69 -18 -80 -41 -16 -31 23 4 75 18 115 31 182
62 349 162 692 419 436 326 705 473 1061 580 205 62 348 80 740 96 158 6 301
17 335 25 33 8 85 19 115 26 46 10 344 119 375 137 6 3 3 -3 -5 -13 -37 -46
-299 -137 -489 -171 -50 -8 -206 -19 -371 -24 -366 -12 -522 -37 -788 -126
-311 -104 -517 -221 -922 -523 -437 -325 -603 -417 -847 -471 -161 -36 -358
-29 -391 13 -30 39 164 617 317 942 58 123 190 336 287 464 130 172 390 411
547 503 92 53 212 109 319 146 131 46 362 101 468 112 127 12 354 5 465 -15z
m-10215 -99 c0 -14 -21 -47 -52 -83 -29 -33 -69 -80 -89 -104 l-36 -44 -106 0
c-58 0 -109 -3 -113 -8 -13 -13 39 -42 86 -47 81 -9 69 -32 -131 -256 -112
-127 -151 -152 -204 -134 l-35 11 36 72 c41 81 261 477 307 550 19 31 38 49
56 53 14 3 31 7 36 9 6 2 63 4 128 4 117 1 117 1 117 -23z m-381 -42 c2 -1 -5
-20 -15 -41 -21 -42 -55 -54 -94 -33 -20 11 -60 66 -60 84 0 7 160 -1 169 -10z
m9185 -143 c8 -13 -31 -44 -48 -38 -19 8 -11 34 12 40 28 8 31 7 36 -2z
m-9391 -98 c-29 -2 -77 -2 -105 0 -29 2 -6 3 52 3 58 0 81 -1 53 -3z m5020
-37 c17 -26 13 -36 -14 -36 -20 0 -39 28 -32 48 7 19 29 14 46 -12z m-93 -22
c0 -17 -22 -14 -28 4 -2 7 3 12 12 12 9 0 16 -7 16 -16z m-4996 -50 c31 -5 46
-11 46 -22 0 -12 -11 -14 -67 -8 -84 8 -114 16 -107 27 6 11 62 12 128 3z
m-31 -81 c-13 -2 -33 -2 -45 0 -13 2 -3 4 22 4 25 0 35 -2 23 -4z m-38 -66
c-17 -13 -17 -14 4 -20 24 -6 28 -29 7 -46 -15 -12 -70 -7 -96 9 -10 6 -8 14
9 39 18 25 29 31 59 31 32 0 34 -1 17 -13z m11895 -577 c81 -81 169 -191 245
-309 55 -85 155 -301 189 -411 63 -199 81 -572 37 -780 -87 -414 -346 -799
-694 -1033 -84 -57 -243 -136 -342 -171 -217 -77 -388 -109 -575 -108 -117 0
-150 4 -250 30 -628 166 -1030 517 -1219 1066 -73 210 -86 292 -86 531 0 189
2 214 20 250 l20 40 6 -285 c7 -315 13 -353 85 -548 195 -527 606 -889 1139
-1003 97 -21 136 -24 325 -24 184 1 230 4 317 23 306 66 556 203 779 426 229
230 368 490 435 816 20 98 24 143 23 310 0 219 -15 316 -80 510 -81 243 -200
427 -411 637 -79 78 -143 147 -143 153 0 23 107 -48 180 -120z m-223 85 c115
-62 301 -250 401 -403 98 -150 180 -351 228 -558 25 -106 28 -139 28 -299 1
-153 -2 -195 -22 -284 -84 -374 -268 -695 -520 -904 -268 -223 -540 -339 -862
-368 -547 -48 -1081 211 -1392 675 -193 289 -288 656 -258 998 12 145 23 191
52 218 24 22 177 104 184 98 2 -3 -10 -56 -26 -120 -81 -314 -44 -627 114
-953 124 -257 338 -476 581 -597 357 -177 768 -190 1143 -37 176 72 300 157
440 303 193 203 313 447 364 741 17 99 19 147 15 275 -3 85 -13 187 -21 225
-60 270 -192 513 -380 700 -83 83 -129 118 -258 198 -87 54 -158 102 -158 107
0 11 94 18 210 16 73 -2 93 -6 137 -31z m-382 -20 c201 -75 444 -270 587 -471
106 -148 186 -340 219 -524 20 -111 18 -421 -4 -533 -103 -517 -531 -941
-1055 -1044 -116 -22 -351 -21 -487 2 -271 47 -458 146 -666 354 -122 122
-190 214 -256 346 -147 293 -186 631 -108 952 37 156 43 164 222 304 273 215
549 388 700 440 73 25 80 24 88 -8 3 -16 13 -35 21 -44 14 -15 6 -20 -83 -54
-162 -63 -265 -128 -369 -232 -179 -179 -267 -359 -304 -618 -58 -409 187
-854 577 -1049 229 -114 474 -126 745 -36 213 71 336 163 467 347 180 252 233
426 211 691 -14 174 -39 269 -107 400 l-54 105 12 96 c13 110 -1 191 -47 283
-54 107 -219 240 -344 278 -31 9 -65 22 -76 28 -38 22 43 13 111 -13z m-215
-118 c0 -13 14 -51 31 -83 30 -55 79 -185 79 -208 0 -22 -20 17 -105 203 -68
150 -85 195 -74 201 16 10 69 -76 69 -113z m93 98 c24 -14 69 -33 98 -41 90
-27 243 -147 289 -227 16 -28 39 -87 51 -131 26 -98 22 -166 -14 -247 -39 -89
-185 -294 -187 -262 0 6 30 49 66 95 37 45 80 111 96 145 84 178 21 393 -155
526 -86 65 -98 72 -182 98 -35 11 -77 31 -92 44 -36 31 -27 31 30 0z m-119
-218 l98 -226 -53 -65 c-36 -44 -60 -64 -73 -63 -16 2 -41 56 -128 271 -59
148 -106 271 -104 274 7 7 140 40 151 38 5 -1 54 -104 109 -229z m90 177 c21
-21 20 -34 -2 -34 -21 0 -42 18 -42 37 0 18 25 16 44 -3z m-392 -41 c35 -60
196 -441 219 -516 7 -25 6 -28 -14 -25 -15 2 -23 11 -25 29 -2 15 -12 35 -23
45 -12 10 -19 30 -19 51 0 21 -6 36 -15 39 -9 4 -15 19 -15 40 0 19 -4 34 -10
34 -5 0 -18 20 -28 44 -11 24 -25 47 -31 51 -7 3 -9 15 -6 26 4 10 -1 29 -9
41 -9 12 -16 32 -16 44 0 12 -9 33 -20 47 -20 25 -28 77 -12 77 4 0 15 -12 24
-27z m560 -48 c15 -19 23 -23 37 -15 14 7 30 -1 75 -39 73 -62 110 -113 130
-180 17 -57 22 -171 8 -171 -22 0 -28 22 -18 69 13 66 -11 131 -60 162 -22 13
-44 40 -57 68 -27 57 -61 66 -106 28 -16 -13 -49 -30 -75 -37 -57 -16 -76 -4
-76 50 0 36 2 38 58 63 31 15 59 27 61 27 2 0 12 -11 23 -25z m-702 -185 c0
-15 -40 -37 -136 -76 -270 -109 -479 -356 -540 -639 -26 -123 -24 -318 4 -420
51 -182 168 -370 294 -473 113 -93 304 -177 461 -202 169 -28 374 15 563 117
102 55 266 246 342 398 111 221 121 483 28 707 -20 48 -36 101 -36 119 l0 33
29 -28 c61 -59 101 -202 108 -391 4 -117 2 -159 -17 -255 -25 -134 -36 -162
-119 -293 -74 -119 -150 -208 -212 -247 -25 -16 -56 -41 -70 -56 -112 -121
-523 -191 -754 -129 -199 53 -448 246 -558 432 -97 162 -133 317 -124 528 7
162 30 256 98 395 48 96 62 115 168 221 125 125 202 178 345 236 82 33 126 41
126 23z m841 -11 c55 -39 74 -113 47 -176 -7 -15 -37 -68 -68 -118 -31 -49
-94 -153 -140 -230 -190 -317 -314 -512 -348 -547 -63 -66 -142 -74 -242 -23
-90 46 -135 140 -111 231 15 55 55 113 163 235 51 57 156 178 233 269 77 91
187 213 245 273 102 103 108 107 149 107 27 0 53 -8 72 -21z m-4564 -20 c35
-6 63 -12 63 -13 0 -1 -7 -26 -15 -54 -18 -59 -28 -62 -97 -35 -24 9 -45 18
-47 19 -5 5 20 94 27 94 3 0 34 -5 69 -11z m-2147 -55 c0 -7 -30 -146 -36
-163 -8 -26 -34 10 -34 48 0 46 34 121 55 121 8 0 15 -2 15 -6z m2535 -39
c398 -63 445 -81 445 -170 0 -31 -33 -65 -62 -65 -22 0 -379 97 -592 162 l-98
29 7 37 c10 51 13 55 49 48 17 -4 130 -22 251 -41z m3371 0 c19 -41 19 -46 5
-58 -17 -15 -110 -47 -135 -47 -22 0 -86 59 -86 79 0 27 88 70 145 70 50 1 50
1 71 -44z m-6525 -21 c23 -21 24 -37 3 -70 -24 -36 -65 -55 -89 -41 -17 9 -15
12 20 21 30 9 42 19 50 40 8 23 6 30 -10 42 -25 18 -70 18 -127 -1 -68 -24
-90 -48 -82 -92 6 -31 4 -35 -12 -31 -13 2 -20 13 -22 33 -4 37 45 89 104 111
49 18 139 12 165 -12z m706 -15 c45 -12 45 -12 40 -48 -2 -20 -13 -54 -23 -76
l-18 -40 -6 59 c-5 57 -6 60 -37 68 -31 8 -42 26 -26 41 9 9 17 9 70 -4z
m5592 -51 c17 -23 31 -48 31 -55 0 -6 -20 -24 -45 -39 -44 -25 -47 -26 -59 -9
-13 18 -11 55 3 55 3 0 15 -7 25 -15 30 -23 37 -18 34 23 -3 32 -7 37 -31 40
-28 3 -28 4 -11 23 9 10 18 19 20 19 1 0 16 -19 33 -42z m-6394 22 c6 -10 -45
-40 -69 -40 -29 0 -25 18 7 34 37 18 53 20 62 6z m3145 -67 c312 -89 320 -92
330 -117 15 -39 -4 -46 -126 -46 -104 0 -119 -2 -165 -26 -49 -26 -53 -26
-172 -20 -94 6 -132 12 -167 29 -37 17 -64 21 -147 22 -88 0 -105 -3 -130 -21
-17 -13 -28 -30 -28 -45 0 -20 7 -26 45 -36 65 -17 239 -16 288 1 33 12 59 13
146 4 69 -7 105 -15 103 -22 -7 -20 -1647 -30 -1681 -10 -17 10 -10 17 60 71
164 123 371 261 414 277 40 14 102 15 525 9 l480 -6 225 -64z m-3855 37 c331
-16 456 -27 467 -38 9 -9 -5 -10 -53 -7 -35 3 -280 15 -544 26 -410 18 -559
21 -1020 15 -529 -6 -613 -9 -1040 -40 -182 -14 -728 -45 -1055 -60 -65 -3
-97 -2 -84 4 28 11 365 36 754 55 173 8 412 22 530 31 118 9 319 20 445 24
277 10 1320 3 1600 -10z m7375 -20 c0 -5 -1 -10 -2 -10 -2 0 -39 -13 -83 -28
-168 -58 -308 -182 -389 -345 -39 -78 -48 -107 -57 -187 -27 -227 23 -395 165
-556 73 -83 266 -202 307 -189 10 3 35 -1 56 -10 31 -14 57 -16 143 -10 87 5
103 4 92 -7 -21 -21 -269 -24 -330 -4 -152 51 -327 200 -399 341 -110 214
-107 434 9 672 54 112 208 248 361 319 53 24 127 32 127 14z m-396 -16 c12
-31 6 -99 -12 -131 -9 -18 -36 -57 -59 -85 -52 -66 -120 -234 -133 -331 -6
-40 -10 -111 -9 -160 2 -82 1 -89 -24 -115 -14 -15 -39 -35 -56 -45 -36 -21
-34 -24 -52 102 -13 94 1 266 28 334 16 40 27 46 41 21 14 -25 47 -13 50 19 3
21 -2 29 -23 37 -21 8 -24 14 -19 37 23 100 150 278 229 321 27 15 32 15 39
-4z m-8370 -36 c10 -6 34 -25 52 -44 54 -53 151 -131 197 -159 102 -59 312
-83 442 -50 33 9 98 34 144 56 68 32 102 57 175 128 l91 89 73 -5 c39 -3 72
-9 72 -13 0 -17 -62 -90 -121 -141 -123 -107 -204 -152 -349 -194 -86 -24
-110 -27 -245 -26 -100 0 -170 6 -209 16 -147 38 -299 125 -412 235 -61 60
-78 85 -70 105 9 25 115 27 160 3z m151 -10 c1 -42 23 -61 59 -52 17 5 130 7
251 5 121 -1 271 0 333 4 l114 7 20 34 c17 29 25 34 59 34 29 0 39 -4 39 -16
0 -36 -163 -163 -232 -179 -27 -7 -27 -7 -15 24 9 26 9 34 -2 40 -8 5 -111 8
-230 7 l-216 -1 -5 -35 c-4 -27 -10 -36 -27 -38 -13 -2 -23 1 -23 7 0 5 -10
13 -22 17 -30 9 -131 87 -157 120 -32 41 -27 56 17 52 32 -3 37 -6 37 -30z
m-357 -19 c15 -23 42 -55 60 -72 32 -31 41 -60 21 -73 -6 -3 -23 6 -38 20 -38
36 -102 37 -133 1 -30 -34 -38 -31 -38 13 0 135 71 196 128 111z m1047 32 c28
-4 43 -10 35 -13 -8 -4 -146 -9 -305 -12 -222 -5 -299 -3 -325 6 l-35 13 45 6
c65 9 526 9 585 0z m666 -32 c3 -15 3 -32 -1 -39 -8 -13 -161 -60 -196 -60
-23 0 -54 38 -54 67 0 9 11 28 24 42 24 25 28 26 122 21 95 -5 98 -6 105 -31z
m-1861 -26 c0 -69 -14 -126 -36 -144 -13 -10 -27 -10 -82 5 -37 10 -71 21 -76
26 -4 4 0 44 9 89 l18 81 83 0 84 0 0 -57z m-220 30 c0 -10 -20 -47 -45 -83
-47 -68 -119 -244 -135 -331 -14 -75 -12 -204 5 -304 71 -404 417 -724 815
-751 164 -12 356 36 518 129 97 55 144 94 215 176 133 153 205 307 227 486 13
102 14 105 42 105 20 0 21 -4 15 -73 -8 -86 -46 -227 -87 -315 -74 -159 -276
-379 -411 -446 -184 -92 -461 -131 -654 -91 -91 19 -122 32 -254 104 -223 121
-396 340 -458 580 -60 236 -36 461 73 672 59 113 134 193 134 142z m2970 -19
c165 -25 240 -42 240 -54 0 -3 -98 11 -217 32 -120 20 -219 38 -220 38 -2 0
-3 5 -3 11 0 7 7 8 18 4 9 -3 91 -18 182 -31z m6410 16 c11 -11 20 -27 20 -36
0 -9 9 -27 20 -41 11 -14 20 -33 20 -41 0 -9 7 -24 17 -34 22 -25 12 -44 -79
-145 -151 -168 -151 -168 -165 -257 -9 -58 -10 -91 -2 -119 12 -45 63 -105
126 -147 54 -35 117 -40 198 -15 27 8 51 12 53 10 18 -17 -119 -88 -207 -106
-31 -6 -58 -14 -61 -18 -3 -4 -17 -14 -32 -24 -16 -10 -28 -26 -28 -37 0 -11
-5 -20 -10 -20 -14 0 -27 36 -35 96 -9 65 -32 147 -48 167 -6 10 -27 21 -45
26 -29 9 -37 6 -68 -22 -35 -30 -36 -33 -32 -86 2 -31 16 -81 30 -112 61 -132
39 -157 -52 -60 -103 109 -139 192 -162 376 -14 117 3 209 63 332 65 133 192
249 339 310 69 28 114 29 140 3z m804 -31 c-9 -16 -33 -9 -44 11 -17 32 -1 44
26 19 13 -12 21 -26 18 -30z m-10340 19 c-3 -13 -26 -63 -51 -111 -67 -134
-95 -267 -94 -442 1 -294 80 -495 273 -700 139 -147 302 -246 488 -296 120
-33 356 -33 477 -1 276 72 513 249 663 496 74 121 104 228 125 448 l7 68 71
21 c40 11 86 29 102 39 63 37 70 36 95 -22 28 -66 38 -205 21 -304 -34 -195
-153 -432 -322 -640 -207 -255 -509 -405 -892 -445 -356 -36 -744 104 -1018
369 -108 103 -171 185 -238 307 -109 199 -164 409 -164 620 0 198 43 446 96
553 l23 47 90 6 c49 3 126 6 172 7 82 2 83 2 76 -20z m2300 16 c9 -3 16 -15
16 -25 0 -17 -3 -18 -20 -9 -11 6 -20 17 -20 25 0 17 2 17 24 9z m226 -18 c0
-16 -37 -46 -57 -46 -14 0 -27 35 -18 50 10 16 75 12 75 -4z m-2930 -23 c0
-16 -17 -89 -37 -163 -34 -128 -36 -145 -40 -330 -4 -149 -1 -216 11 -286 48
-279 176 -515 401 -739 135 -135 238 -205 388 -265 337 -134 642 -151 951 -53
364 114 653 369 827 726 38 79 60 144 94 281 23 97 45 180 48 183 10 9 108
-50 133 -80 29 -35 29 -34 3 -127 -63 -232 -176 -479 -283 -621 -172 -228
-448 -423 -731 -518 -181 -60 -280 -75 -495 -75 -163 0 -212 4 -297 22 -302
65 -572 212 -788 427 -124 124 -209 244 -286 400 -117 241 -154 394 -154 645
1 191 12 277 67 483 l31 117 78 0 79 0 0 -27z m3050 17 c0 -21 -233 -208 -386
-310 -143 -95 -173 -111 -275 -144 -172 -55 -414 -91 -444 -66 -16 13 -20 67
-7 86 4 7 58 14 137 17 289 12 535 109 780 308 44 36 98 77 120 92 40 27 75
35 75 17z m-3284 -117 c-52 -179 -55 -207 -47 -488 l7 -260 43 -125 c23 -69
73 -188 111 -266 197 -401 452 -616 932 -785 160 -57 259 -73 458 -72 138 0
373 34 480 69 113 38 293 127 403 201 177 117 380 336 481 516 62 110 116 245
147 366 39 155 59 212 70 205 15 -9 10 -81 -12 -167 -45 -177 -164 -429 -273
-582 -195 -270 -500 -487 -815 -580 -65 -19 -130 -39 -146 -45 -16 -6 -89 -16
-163 -22 -147 -13 -387 0 -515 27 -150 33 -423 152 -568 248 -398 265 -665
739 -686 1217 -9 221 23 476 74 593 39 87 50 57 19 -50z m10912 75 c33 -33 -9
-118 -57 -118 -30 0 -31 30 -3 83 26 48 39 56 60 35z m-3855 -7 c13 -5 27 -17
31 -27 6 -15 1 -16 -36 -10 -47 8 -64 19 -54 35 9 13 27 14 59 2z m-4013 -26
c0 -19 -20 -29 -32 -17 -8 8 -7 16 2 26 14 17 30 12 30 -9z m-434 -20 c11 -26
22 -37 44 -42 33 -6 40 -29 13 -37 -141 -42 -309 -84 -315 -78 -5 5 24 31 64
59 40 28 91 70 113 92 22 22 46 40 53 41 7 0 20 -16 28 -35z m-566 5 c0 -12
-236 -12 -265 0 -12 5 34 9 123 9 88 1 142 -3 142 -9z m778 -2 c-7 -20 -58
-42 -70 -30 -7 7 -1 15 18 26 35 19 57 20 52 4z m145 -60 c-22 -21 -43 -17
-43 8 0 9 10 24 23 34 21 18 22 18 31 -1 7 -15 4 -25 -11 -41z m3166 33 c18
-12 7 -27 -25 -35 -31 -8 -49 5 -41 28 7 17 44 21 66 7z m154 -10 c16 -15 -20
-30 -56 -24 -36 5 -50 26 -24 36 14 7 69 -2 80 -12z m663 -7 c10 -15 13 -29 8
-34 -5 -5 -44 -12 -86 -16 l-78 -7 0 42 0 41 70 0 c64 0 71 -2 86 -26z m-4833
1 c-3 -21 -108 -44 -201 -44 -77 -1 -100 3 -135 21 l-42 22 30 7 c47 11 350 6
348 -6z m1137 -60 c23 -36 61 -80 83 -98 l41 -32 148 3 c81 2 148 0 148 -5 0
-7 -509 -87 -516 -81 -1 2 -8 49 -15 106 l-13 102 34 35 c19 19 37 35 41 35 4
0 26 -29 49 -65z m-2101 46 c12 -8 12 -12 2 -25 -10 -12 -17 -13 -31 -4 -10 6
-16 18 -13 25 6 15 22 17 42 4z m-309 -21 c11 -7 7 -10 -17 -10 -18 0 -33 5
-33 10 0 13 30 13 50 0z m10175 -46 c14 -31 25 -60 25 -65 0 -5 -16 -9 -35 -9
-28 0 -37 -5 -51 -31 -15 -30 -15 -32 7 -55 l22 -23 39 20 c22 11 41 19 43 17
9 -9 35 -178 35 -228 0 -59 -44 -255 -63 -278 -13 -17 -51 17 -79 72 -18 36
-19 46 -8 140 13 117 -3 268 -38 346 l-19 45 45 53 c24 28 46 52 48 52 2 0 15
-25 29 -56z m-9745 -18 c0 -74 -9 -82 -73 -65 -56 15 -71 -4 -62 -81 9 -79 9
-97 0 -172 -7 -62 -5 -72 19 -122 45 -93 63 -99 274 -94 195 4 221 11 263 69
16 22 24 54 30 117 12 110 23 128 89 137 28 4 53 5 55 3 2 -2 5 -23 6 -46 3
-37 -1 -46 -34 -76 -35 -32 -37 -37 -37 -98 0 -41 5 -71 15 -84 20 -27 19 -32
-10 -26 -33 6 -55 -14 -55 -49 0 -23 6 -32 28 -40 l27 -11 -43 -38 c-58 -52
-138 -82 -237 -87 -75 -5 -82 -7 -108 -36 -15 -18 -27 -25 -26 -17 3 31 -2 41
-26 50 -37 14 -53 3 -63 -43 l-9 -42 -8 63 c-7 59 -11 65 -59 108 -160 144
-214 312 -157 490 27 82 48 118 93 160 18 17 45 45 60 62 39 47 48 41 48 -32z
m146 13 c33 -22 96 -51 140 -65 109 -37 116 -48 24 -39 -41 4 -120 10 -175 14
-113 7 -114 8 -100 98 6 39 9 43 28 37 12 -3 49 -24 83 -45z m1459 31 c0 -19
-62 -60 -91 -60 -40 0 -22 37 31 65 35 18 60 16 60 -5z m-1900 0 c4 -6 -10
-10 -34 -10 -22 0 -43 5 -46 10 -4 6 10 10 34 10 22 0 43 -4 46 -10z m-230
-20 c21 -23 15 -54 -20 -110 -15 -23 -22 -46 -18 -59 3 -12 -4 -43 -15 -70
-39 -89 -38 -117 3 -196 l37 -69 -23 -18 c-38 -31 -53 -20 -62 47 -19 136 10
395 53 475 13 25 22 25 45 0z m158 -26 c54 -7 70 -28 57 -74 -7 -24 -9 -25
-81 -22 -74 2 -99 15 -99 48 0 22 42 65 59 60 9 -3 38 -8 64 -12z m185 -28 c2
-10 -5 -31 -16 -46 -11 -15 -26 -47 -33 -71 l-12 -44 -13 40 c-21 66 -14 114
20 138 19 12 51 3 54 -17z m2006 -118 c18 -122 20 -148 7 -148 -16 0 -31 54
-41 149 -10 93 -6 150 10 120 4 -8 15 -62 24 -121z m-374 115 c0 -16 -35 -43
-56 -43 -13 0 -38 -6 -56 -14 -77 -33 -329 -72 -358 -56 -23 13 43 37 152 55
51 8 134 26 183 39 93 25 135 31 135 19z m8050 -1 c0 -19 -28 -44 -46 -40 -18
3 -18 4 4 26 22 22 42 29 42 14z m-7746 -69 c15 -104 17 -143 9 -143 -16 0
-63 96 -63 127 0 59 45 72 54 16z m7869 -20 c29 -67 37 -298 13 -393 -27 -103
-116 -254 -116 -196 0 9 18 55 39 103 68 152 81 283 42 430 -24 93 -25 103
-10 103 5 0 20 -21 32 -47z m125 9 c4 -23 -4 -27 -27 -13 -17 11 -7 45 12 39
6 -3 13 -14 15 -26z m-9411 -19 c72 -8 101 -22 89 -42 -10 -16 -147 -13 -251
5 -49 8 -112 14 -140 13 -95 -4 -133 6 -123 32 4 11 38 13 179 7 96 -4 206
-11 246 -15z m223 17 c0 -5 -16 -10 -35 -10 -19 0 -35 5 -35 10 0 6 16 10 35
10 19 0 35 -4 35 -10z m3673 -17 c25 -48 387 -1160 387 -1187 0 -26 -36 -55
-50 -39 -8 9 -51 127 -180 503 -198 572 -229 667 -236 708 l-7 42 36 0 c30 0
39 -5 50 -27z m-2562 -48 c6 -23 33 -65 64 -101 l54 -61 76 -9 c80 -10 174 -6
524 22 106 8 279 20 385 25 105 5 214 13 241 18 126 24 196 9 213 -45 9 -31 8
-36 -14 -50 -39 -26 -90 -34 -284 -44 -102 -5 -248 -13 -325 -19 -364 -25
-561 -33 -690 -30 -133 4 -143 6 -188 32 -89 52 -163 148 -181 232 -6 28 -3
32 46 62 58 35 61 33 79 -32z m7881 53 c19 -15 38 -119 38 -204 0 -72 -18
-148 -66 -273 -31 -79 -47 -105 -109 -173 -65 -71 -83 -84 -161 -119 -120 -54
-182 -69 -285 -69 -72 0 -89 3 -103 19 -16 17 -16 24 -5 54 11 30 10 42 -5 82
-10 26 -14 50 -10 55 12 11 135 58 199 76 28 8 75 14 106 14 60 0 73 7 155 81
23 21 67 49 98 64 101 48 138 130 118 266 -10 72 -7 139 7 139 4 0 14 -6 23
-12z m-6802 -49 c162 -23 297 -43 299 -45 22 -20 -145 -40 -439 -53 -140 -7
-304 -17 -365 -23 -167 -16 -263 -21 -290 -14 -21 5 -25 12 -25 45 0 31 5 40
28 51 25 12 414 77 472 79 13 1 157 -18 320 -40z m-3125 21 c7 -11 -16 -11
-60 0 -28 7 -28 8 12 9 23 0 45 -3 48 -9z m-2 -47 c41 -6 46 -21 25 -68 -13
-29 -21 -31 -38 -10 -17 21 -66 19 -75 -2 -6 -17 -7 -17 -21 1 -17 24 -18 68
-1 85 7 8 23 10 42 6 17 -4 47 -9 68 -12z m592 -3 c88 -6 173 -15 188 -22 31
-12 31 -11 10 -166 -13 -98 -74 -119 -306 -107 l-148 7 -31 42 c-29 40 -30 44
-26 132 4 121 18 139 98 130 30 -4 127 -11 215 -16z m471 9 c8 -14 -11 -33
-25 -25 -11 7 -4 36 9 36 5 0 12 -5 16 -11z m8810 -84 c15 -101 -16 -151 -126
-210 -67 -34 -75 -36 -131 -30 -35 4 -59 12 -58 18 0 7 24 50 53 97 44 72 65
95 136 148 85 63 85 63 102 42 9 -11 20 -41 24 -65z m-8756 30 c0 -29 4 -36
27 -41 36 -9 58 7 58 45 0 17 3 31 7 31 13 0 9 -65 -4 -78 -17 -17 -68 -15
-90 5 -19 17 -25 73 -8 73 6 0 10 -16 10 -35z m-1258 -50 c5 -62 25 -91 69
-100 41 -9 73 14 104 76 29 57 49 59 53 6 3 -31 -3 -43 -37 -79 -39 -42 -41
-43 -106 -43 -64 0 -68 1 -101 37 -30 33 -34 44 -34 91 0 58 4 67 30 67 14 0
18 -12 22 -55z m1206 2 c3 -12 -3 -17 -22 -17 -25 0 -35 18 -19 34 12 12 38 2
41 -17z m402 -47 c19 -36 -42 -300 -70 -300 -15 0 -80 117 -80 144 0 15 5 58
11 96 13 75 14 76 91 79 28 1 40 -4 48 -19z m-1500 6 c0 -3 -4 -8 -10 -11 -5
-3 -10 -1 -10 4 0 6 5 11 10 11 6 0 10 -2 10 -4z m1244 -19 c18 -13 18 -17 2
-93 -24 -120 -66 -196 -161 -289 -44 -44 -101 -93 -127 -108 -74 -43 -221 -88
-296 -90 -61 -2 -132 15 -132 32 0 3 17 26 38 50 38 44 40 45 118 52 121 11
187 40 266 119 82 82 90 106 53 162 -15 23 -30 61 -33 83 -4 37 -1 44 28 68
29 25 38 27 129 27 65 0 103 -4 115 -13z m86 -8 c0 -55 -37 -174 -82 -267 -68
-140 -133 -204 -294 -292 l-119 -65 -160 -3 c-190 -4 -255 8 -362 66 -136 75
-240 188 -309 336 -28 61 -31 89 -7 84 9 -2 23 -25 34 -56 32 -94 191 -282
276 -325 277 -143 566 -106 786 102 99 95 137 158 172 294 26 103 44 147 57
147 4 0 8 -9 8 -21z m-1147 -133 c37 -101 40 -105 118 -175 l79 -72 0 -70 0
-70 -41 23 c-23 13 -79 58 -124 100 -65 61 -92 95 -125 158 -27 54 -40 89 -36
104 5 22 72 106 84 106 4 0 24 -47 45 -104z m3109 15 c-12 -11 -68 -35 -125
-54 -56 -20 -154 -54 -217 -76 -109 -39 -121 -41 -232 -41 -65 0 -148 -5 -185
-11 -57 -10 -74 -9 -105 4 -43 18 -69 54 -72 98 -2 43 14 47 254 60 107 5 281
16 385 23 105 7 219 14 255 14 65 1 65 1 42 -17z m-3342 -66 c7 -25 11 -48 8
-51 -3 -2 -17 0 -32 6 -15 5 -41 10 -57 10 -18 0 -28 4 -24 10 3 6 17 10 31
10 27 0 31 9 12 28 -10 10 -10 15 2 22 31 20 47 11 60 -35z m8746 -11 c19 -45
12 -64 -21 -64 -22 0 -24 2 -13 19 9 15 9 23 -2 36 -13 16 -16 15 -37 -11 -14
-17 -23 -23 -23 -15 0 19 50 71 67 71 8 0 21 -16 29 -36z m933 -11 c20 -17 21
-19 6 -40 -18 -26 -57 -30 -75 -8 -9 11 -8 19 7 39 22 30 34 32 62 9z m-8684
-23 c-5 -8 -11 -8 -17 -2 -6 6 -7 16 -3 22 5 8 11 8 17 2 6 -6 7 -16 3 -22z
m418 -28 c27 -24 22 -58 -13 -72 -42 -17 -80 -6 -80 24 0 13 6 29 14 35 12 10
15 6 21 -19 8 -35 12 -36 44 -14 l23 16 -32 19 c-17 11 -28 24 -25 29 7 11 19
6 48 -18z m7757 -98 c12 -72 9 -80 -30 -86 -22 -3 -29 5 -52 53 -35 71 -48
142 -25 133 8 -3 28 1 44 10 27 14 28 14 40 -14 7 -15 17 -59 23 -96z m964
117 c3 -5 -1 -14 -9 -21 -21 -18 -19 -35 8 -48 l22 -11 -22 0 c-52 -2 -67 24
-37 67 16 23 29 28 38 13z m-10112 -39 c17 -7 178 -225 178 -241 0 -4 -11 -13
-25 -19 -14 -7 -25 -20 -25 -31 0 -11 -4 -22 -9 -25 -16 -10 -87 50 -135 115
-46 61 -106 168 -106 188 0 17 89 26 122 13z m8748 -27 c18 -9 45 -42 69 -83
62 -106 153 -182 304 -251 47 -21 98 -42 115 -46 17 -3 35 -12 41 -19 11 -13
41 -101 41 -120 0 -13 -86 0 -160 24 -214 72 -397 218 -490 391 -39 74 -39 93
3 107 44 14 44 14 77 -3z m-7345 -87 c0 -24 -37 -70 -141 -173 -114 -113 -238
-183 -385 -216 -52 -12 -102 -26 -112 -31 -12 -6 -23 -5 -33 2 -12 11 -11 16
5 39 11 15 21 40 23 56 3 28 8 32 108 65 144 48 221 94 310 185 41 42 84 81
95 85 11 5 45 8 75 7 44 -2 55 -5 55 -19z m8713 16 c27 -8 28 -23 1 -76 -18
-36 -185 -207 -210 -216 -5 -2 -9 12 -9 32 0 31 -3 36 -23 36 -48 0 -63 -46
-24 -74 l22 -16 -32 -27 c-59 -52 -218 -106 -350 -119 -61 -7 -66 2 -33 65 24
48 64 81 99 81 14 0 63 13 108 29 85 30 208 112 254 170 13 17 40 51 59 76 31
40 39 45 75 45 22 0 50 -3 63 -6z m-183 -54 c-8 -16 -26 -37 -40 -47 -14 -10
-41 -33 -61 -50 -47 -42 -169 -103 -206 -103 -44 0 -26 15 54 47 54 21 90 44
138 89 102 95 143 118 115 64z m-9405 -45 c-19 -23 -44 0 -29 27 10 18 12 19
27 5 13 -13 13 -19 2 -32z m8734 9 c11 -28 7 -33 -34 -45 -46 -14 -66 -4 -56
29 10 30 80 42 90 16z m-8916 -136 c74 -37 118 -53 156 -56 l53 -4 31 -64 c18
-36 32 -69 32 -74 0 -27 -197 16 -310 68 -103 46 -157 102 -116 118 8 3 18 19
21 35 4 16 12 29 18 29 7 0 58 -23 115 -52z m375 -92 c9 -23 -12 -83 -31 -91
-12 -4 -25 3 -44 25 -30 32 -36 65 -15 73 27 12 85 7 90 -7z m8707 -36 c0 -23
-15 -27 -24 -5 -7 19 -36 8 -36 -14 -1 -14 -3 -13 -15 3 -20 26 -10 36 36 36
32 0 39 -3 39 -20z m-45 -50 c3 -5 2 -10 -4 -10 -5 0 -13 5 -16 10 -3 6 -2 10
4 10 5 0 13 -4 16 -10z m-4147 -686 c3 -22 -21 -39 -39 -28 -11 6 -12 38 -2
48 13 13 38 1 41 -20z"/>
<path d="M8760 7481 c-147 -33 -232 -73 -206 -98 3 -3 52 10 108 30 158 55
224 61 402 37 82 -11 160 -20 175 -20 l26 1 -23 19 c-33 27 -110 41 -262 46
-108 3 -152 0 -220 -15z"/>
<path d="M4246 2764 c-69 -70 12 -184 92 -128 26 18 30 70 7 113 -24 48 -60
53 -99 15z m72 -47 c6 -7 9 -23 5 -36 -8 -32 -57 -26 -61 8 -5 36 34 55 56 28z"/>
<path d="M2955 4373 c-16 -1 -183 -12 -370 -23 -372 -22 -675 -48 -945 -81
-183 -23 -214 -34 -208 -73 4 -31 62 -31 363 -2 143 14 350 32 460 41 110 8
277 21 370 29 317 28 723 37 1139 26 214 -6 397 -8 407 -5 24 8 34 44 17 61
-7 8 -47 18 -88 24 -67 8 -1071 12 -1145 3z m875 -23 c263 -13 312 -19 304
-32 -5 -8 -55 -8 -168 -2 -208 12 -723 10 -991 -4 -369 -18 -597 -32 -710 -42
-60 -5 -195 -16 -300 -25 -104 -9 -226 -20 -269 -25 -105 -13 -216 -13 -196 0
8 5 40 10 70 10 30 0 71 5 90 10 19 6 105 15 190 20 85 5 207 16 270 25 128
17 327 31 680 46 129 5 305 13 390 18 237 12 415 12 640 1z"/>
<path d="M3050 4249 c-146 -4 -292 -12 -325 -17 -74 -14 -311 -30 -597 -42
-120 -5 -222 -11 -227 -14 -5 -3 -98 -15 -207 -26 -323 -32 -367 -41 -349 -70
9 -14 50 -12 375 25 394 44 504 56 635 65 72 6 164 14 205 20 105 13 777 32
1190 34 300 1 354 -1 414 -17 93 -24 163 -63 194 -110 41 -62 35 -120 -36
-327 -33 -96 -63 -191 -66 -210 -4 -19 -32 -110 -62 -202 -54 -167 -70 -255
-38 -213 8 11 32 76 54 145 21 69 68 220 104 335 81 262 97 325 98 386 0 102
-88 202 -204 230 -61 15 -715 19 -1158 8z"/>
<path d="M2635 3886 c-8 -13 -13 -31 -9 -40 6 -15 61 -16 633 -16 344 0 636 3
649 6 19 5 23 12 20 38 l-3 31 -637 3 -637 2 -16 -24z"/>
<path d="M2382 3803 c-43 -4 -65 -25 -46 -43 5 -5 212 -11 459 -14 248 -3 542
-10 655 -16 268 -14 515 -10 555 10 17 9 30 22 30 30 0 39 -21 40 -830 38
-429 -1 -799 -3 -823 -5z m1090 -26 c334 -1 504 -5 497 -12 -11 -11 -11 -11
-926 1 -353 5 -645 13 -650 18 -4 5 119 6 282 2 160 -3 518 -7 797 -9z"/>
<path d="M2572 3718 c-7 -7 -12 -22 -12 -33 l0 -22 428 -6 c235 -4 525 -7 645
-7 l217 0 0 24 c0 23 -2 24 -102 30 -127 7 -915 26 -1058 26 -69 0 -110 -4
-118 -12z"/>
<path d="M2323 3629 c-19 -19 -16 -37 7 -49 26 -14 1083 -23 1074 -9 -3 5
-157 9 -362 9 -196 0 -434 3 -529 7 -166 6 -172 7 -162 26 9 16 17 18 47 11
21 -4 52 -7 70 -6 20 1 31 -2 27 -8 -4 -6 35 -10 109 -10 71 0 116 4 116 10 0
6 9 10 21 10 11 0 17 -4 14 -10 -4 -6 22 -9 72 -9 61 2 69 3 38 8 l-40 7 60 7
c62 8 135 0 115 -13 -19 -12 188 -20 534 -21 182 -1 342 -5 356 -10 15 -5 -58
-8 -189 -6 -164 1 -215 -1 -218 -10 -4 -10 32 -14 154 -15 275 -4 343 4 343
43 0 37 -41 41 -400 40 -190 -1 -355 -1 -367 -1 -13 0 -29 0 -35 0 -7 0 -200
3 -428 6 -333 5 -417 3 -427 -7z"/>
<path d="M2490 3513 l0 -33 592 0 c325 0 589 -2 587 -5 -3 -2 -315 -5 -694 -5
-415 -1 -697 -5 -707 -11 -10 -5 -18 -18 -18 -28 0 -16 11 -20 68 -25 107 -10
521 -14 582 -6 l55 7 -80 3 c-44 2 -195 6 -335 10 -159 5 33 7 512 4 486 -2
769 0 773 6 10 17 45 12 39 -5 -5 -13 -63 -15 -428 -16 -231 0 -409 -4 -394
-9 25 -7 592 -28 633 -22 11 1 67 4 125 7 73 4 109 10 119 20 10 10 12 18 5
25 -12 12 -104 30 -155 30 -22 0 -39 5 -39 10 0 6 11 10 25 10 20 0 25 5 25
24 l0 24 -222 6 c-123 4 -413 8 -646 9 l-422 2 0 -32z"/>
<path d="M2425 3369 c-4 -6 -5 -13 -2 -16 6 -5 620 -21 957 -24 l215 -2 -250
-8 c-150 -5 -332 -5 -455 1 -112 6 -304 10 -425 10 -233 0 -261 -5 -254 -45 6
-27 36 -33 184 -36 95 -2 110 -4 54 -6 -71 -4 -77 -6 -88 -30 -6 -14 -10 -28
-7 -30 2 -3 293 -7 645 -10 677 -6 671 -7 671 38 0 18 -19 19 -552 21 l-553 2
635 6 c349 3 643 9 653 14 25 12 17 39 -13 47 -14 4 -51 7 -82 8 -58 1 -68 7
-46 29 6 6 10 14 7 16 -3 3 -1079 26 -1231 26 -31 0 -60 -5 -63 -11z m743 -85
c365 -4 659 -11 655 -15 -13 -13 -97 -13 -533 -1 -223 6 -548 12 -722 12 -229
0 -318 3 -318 11 0 8 36 10 128 5 70 -3 425 -9 790 -12z"/>
<path d="M2263 3153 c-62 -3 -73 -7 -78 -24 -9 -29 -3 -32 73 -41 81 -8 721
-8 1062 2 255 7 200 13 -95 11 -93 0 -197 3 -230 8 -40 6 76 9 353 10 273 1
411 -2 407 -9 -4 -6 7 -10 25 -10 27 0 31 3 28 23 -3 20 -10 23 -78 28 -77 7
-1338 8 -1467 2z m422 -33 c46 -4 -13 -7 -175 -8 -135 0 -254 3 -265 8 -24 10
339 11 440 0z"/>
<path d="M2304 3055 c-17 -44 -31 -43 628 -47 343 -2 631 -1 640 1 18 3 34 38
23 49 -4 4 -294 8 -646 10 -565 2 -640 1 -645 -13z"/>
<path d="M10810 4545 c-378 -51 -656 -167 -935 -390 -205 -164 -368 -344 -495
-547 -78 -125 -227 -414 -308 -598 -61 -138 -166 -444 -159 -464 5 -13 8 -5
133 299 52 127 144 329 204 450 162 329 262 469 498 696 156 150 276 238 442
323 212 108 448 171 724 196 370 32 865 -92 1160 -292 89 -61 254 -206 330
-291 76 -84 96 -98 96 -65 0 32 -210 235 -360 347 -149 112 -283 180 -495 250
-230 76 -317 92 -540 96 -127 3 -225 -1 -295 -10z"/>
<path d="M11559 4234 c-378 -43 -1021 -170 -1374 -270 -206 -59 -275 -93 -262
-128 11 -27 69 -19 235 35 86 28 290 82 452 119 452 105 652 140 905 160 220
16 357 31 382 41 31 11 29 37 -3 49 -34 13 -194 11 -335 -6z m286 -14 c-16 -5
-131 -18 -255 -29 -356 -32 -868 -128 -1230 -231 -266 -76 -369 -102 -384 -97
-22 7 114 50 359 112 447 114 756 174 1175 230 173 23 398 33 335 15z"/>
<path d="M11670 4105 c-63 -8 -162 -18 -220 -24 -224 -23 -476 -74 -944 -190
-582 -145 -660 -170 -640 -202 4 -8 74 10 149 38 22 8 58 19 80 23 71 16 335
89 353 99 21 11 302 72 467 101 66 12 123 23 126 26 13 8 328 58 409 65 118
10 272 27 350 39 139 21 214 8 268 -46 33 -33 34 -37 28 -87 -3 -28 -8 -67
-12 -84 -9 -47 19 -44 41 3 30 63 2 166 -60 224 -25 24 -33 25 -153 26 -70 1
-179 -4 -242 -11z"/>
<path d="M11582 3044 c-59 -60 -168 -181 -242 -268 -74 -88 -186 -218 -248
-290 -63 -72 -121 -144 -130 -161 -11 -20 -17 -55 -17 -107 0 -72 2 -79 30
-108 52 -56 154 -96 211 -85 60 11 107 66 242 288 72 117 189 309 261 427 136
222 158 270 147 314 -12 47 -57 87 -104 93 l-43 6 -107 -109z m202 54 c46 -41
44 -74 -11 -158 -27 -41 -95 -151 -152 -245 -143 -234 -294 -481 -328 -535
-19 -31 -43 -52 -77 -69 -45 -22 -53 -24 -102 -13 -67 14 -98 34 -119 79 -23
47 -14 120 19 177 14 22 62 84 108 137 46 53 130 152 188 220 147 173 358 407
378 418 29 17 70 12 96 -11z"/>
<path d="M11682 3067 c-40 -43 -22 -97 33 -97 54 0 75 60 35 100 -26 26 -42
25 -68 -3z m48 -31 c0 -8 -4 -17 -8 -20 -13 -8 -35 11 -28 23 10 16 36 14 36
-3z"/>
<path d="M11565 2933 c-20 -21 -109 -128 -198 -237 -89 -110 -193 -235 -230
-279 -81 -95 -107 -143 -107 -194 0 -47 17 -72 63 -97 49 -25 101 -15 141 28
35 37 126 178 181 281 20 39 46 80 57 91 32 35 206 334 213 366 8 35 -13 63
-57 73 -23 6 -33 1 -63 -32z m71 -53 c-3 -17 -29 -70 -58 -118 -335 -560 -372
-612 -437 -612 -27 0 -44 7 -60 24 -22 24 -23 25 -7 78 16 53 39 86 151 216
89 103 222 263 287 345 65 81 83 97 111 97 16 0 19 -5 13 -30z"/>
<path d="M7947 2913 c-4 -3 -7 -21 -7 -40 0 -39 19 -51 56 -35 26 13 33 49 12
70 -13 13 -50 16 -61 5z"/>
<path d="M2790 2175 c-20 -22 -22 -27 -10 -55 7 -16 20 -30 29 -30 28 0 61 30
61 55 0 21 -32 55 -50 55 -4 0 -17 -11 -30 -25z"/>
<path d="M10610 1645 c-11 -13 -11 -20 0 -40 16 -30 36 -32 50 -5 24 44 -19
82 -50 45z"/>
<path d="M2793 1617 c-8 -18 -7 -27 7 -45 23 -28 36 -28 55 2 19 28 11 52 -18
60 -32 8 -33 8 -44 -17z m47 -17 c0 -5 -4 -10 -10 -10 -5 0 -10 5 -10 10 0 6
5 10 10 10 6 0 10 -4 10 -10z"/>
<path d="M2383 1484 c-3 -8 -1 -20 5 -26 16 -16 42 -2 42 22 0 24 -38 28 -47
4z"/>
<path d="M7841 404 c-26 -21 -31 -33 -31 -68 0 -23 6 -50 13 -59 6 -10 45 -27
86 -40 80 -24 104 -45 81 -72 -21 -25 -102 -17 -115 13 -7 16 -18 22 -42 22
-36 0 -38 -5 -23 -44 29 -78 201 -90 240 -17 17 33 12 96 -9 115 -10 9 -52 27
-92 39 -60 19 -75 27 -77 45 -7 44 85 52 111 11 15 -24 67 -26 67 -3 0 76
-141 115 -209 58z"/>
<path d="M3740 260 l0 -160 35 0 35 0 0 55 0 55 45 0 c64 0 109 21 125 59 18
44 7 101 -25 129 -23 19 -37 22 -121 22 l-94 0 0 -160z m161 100 c12 -7 19
-21 19 -40 0 -35 -23 -50 -74 -50 l-36 0 0 50 0 50 36 0 c19 0 44 -5 55 -10z"/>
<path d="M4040 390 c0 -27 3 -30 30 -30 27 0 30 3 30 30 0 27 -3 30 -30 30
-27 0 -30 -3 -30 -30z"/>
<path d="M4962 393 c3 -24 8 -28 33 -28 25 0 30 4 33 28 3 25 1 27 -33 27 -34
0 -36 -2 -33 -27z"/>
<path d="M5509 278 c65 -191 58 -178 95 -178 l31 0 53 153 c28 83 52 155 52
160 0 4 -15 7 -34 7 -33 0 -35 -2 -52 -57 -41 -140 -53 -178 -54 -173 -1 3
-16 55 -33 115 l-33 110 -36 3 -37 3 48 -143z"/>
<path d="M8562 393 c3 -24 8 -28 33 -28 25 0 30 4 33 28 3 25 1 27 -33 27 -34
0 -36 -2 -33 -27z"/>
<path d="M6993 385 c-12 -15 -32 -25 -47 -25 -21 0 -26 -5 -26 -25 0 -22 4
-25 40 -25 l40 0 0 -105 0 -105 30 0 30 0 0 155 c0 154 0 155 -22 155 -13 0
-33 -12 -45 -25z"/>
<path d="M7189 381 c-37 -38 -40 -81 -5 -81 17 0 29 9 38 28 23 47 88 38 88
-12 0 -23 -26 -51 -94 -100 -34 -25 -66 -77 -66 -106 0 -6 41 -10 110 -10
l110 0 0 25 c0 23 -3 24 -72 27 l-73 3 67 47 c79 57 98 95 74 151 -18 44 -41
57 -101 57 -38 0 -52 -5 -76 -29z"/>
<path d="M7436 373 c-2 -16 -8 -54 -11 -85 l-6 -58 30 0 c16 0 33 5 36 10 3 6
19 10 35 10 31 0 50 -22 50 -59 0 -46 -68 -70 -92 -31 -16 25 -68 28 -68 4 0
-8 13 -29 29 -45 34 -34 92 -39 141 -14 38 20 50 43 50 100 0 37 -5 51 -27 71
-23 21 -36 25 -75 22 -46 -3 -48 -2 -48 25 0 27 0 27 70 27 68 0 70 1 70 25 0
25 -1 25 -89 25 l-89 0 -6 -27z"/>
<path d="M8960 370 c0 -20 -5 -30 -15 -30 -9 0 -15 -9 -15 -25 0 -16 6 -25 15
-25 12 0 15 -16 15 -84 0 -55 4 -87 13 -93 17 -14 56 -23 73 -16 21 8 17 44
-6 50 -18 5 -20 14 -20 74 0 62 2 69 20 69 15 0 20 7 20 25 0 18 -5 25 -20 25
-16 0 -20 7 -20 30 0 27 -3 30 -30 30 -27 0 -30 -3 -30 -30z"/>
<path d="M4200 333 c-25 -13 -36 -26 -38 -45 -3 -24 0 -28 20 -28 13 0 31 9
41 21 16 18 47 20 66 3 12 -11 -14 -34 -46 -40 -74 -13 -93 -30 -93 -86 0 -61
56 -86 120 -53 17 9 30 11 30 5 0 -5 15 -10 33 -10 l32 0 -5 100 c-4 82 -8
103 -25 119 -29 30 -92 36 -135 14z m93 -148 c-7 -32 -26 -47 -55 -43 -36 5
-36 43 -1 56 48 18 61 15 56 -13z"/>
<path d="M4460 337 c-69 -34 -80 -159 -19 -216 25 -23 87 -29 107 -9 17 17 26
4 18 -26 -7 -30 -47 -44 -79 -28 -12 6 -34 12 -49 15 -33 5 -36 -10 -9 -44 17
-21 28 -24 86 -24 61 0 69 3 91 28 23 27 24 35 24 168 l0 139 -30 0 c-16 0
-30 -4 -30 -9 0 -6 -12 -3 -27 5 -34 17 -51 17 -83 1z m94 -69 c44 -63 -17
-154 -68 -102 -19 18 -22 94 -4 112 19 19 55 14 72 -10z"/>
<path d="M4744 340 c-42 -17 -64 -58 -64 -122 0 -52 3 -63 29 -89 23 -22 39
-29 70 -29 22 0 43 4 46 10 11 19 23 10 18 -12 -12 -48 -48 -63 -82 -35 -10 8
-29 11 -50 8 l-34 -6 24 -28 c29 -34 89 -45 144 -27 54 18 65 52 65 205 l0
125 -29 0 c-16 0 -31 -5 -33 -11 -2 -6 -14 -5 -33 5 -34 18 -41 18 -71 6z m84
-62 c18 -18 15 -94 -4 -112 -34 -35 -84 -2 -84 54 0 54 55 91 88 58z"/>
<path d="M5156 340 c-41 -13 -65 -38 -76 -82 -24 -86 32 -168 114 -168 64 0
110 38 121 100 17 99 -67 179 -159 150z m76 -67 c38 -35 11 -133 -37 -133 -28
0 -55 38 -55 77 0 63 50 94 92 56z"/>
<path d="M5803 336 c-79 -35 -85 -178 -11 -230 28 -20 80 -20 118 -1 26 13 50
42 50 59 0 11 -48 6 -75 -8 -34 -18 -69 -7 -73 23 -3 20 1 21 72 21 41 0 78 4
81 10 10 16 -14 85 -37 107 -31 28 -85 36 -125 19z m85 -58 c25 -25 13 -38
-33 -38 -30 0 -45 4 -45 13 0 19 21 37 45 37 12 0 26 -5 33 -12z"/>
<path d="M6053 335 c-18 -8 -38 -26 -45 -40 -20 -43 6 -76 77 -100 67 -23 80
-48 28 -53 -23 -2 -35 3 -46 18 -20 29 -74 25 -69 -5 6 -32 36 -56 80 -62 80
-11 132 21 132 81 0 41 -10 50 -82 71 -57 16 -74 37 -42 49 9 4 29 -1 43 -11
36 -24 71 -25 71 -2 0 25 -35 56 -72 63 -39 8 -37 8 -75 -9z"/>
<path d="M6353 335 c-18 -8 -33 -10 -33 -5 0 6 -13 10 -30 10 l-30 0 0 -170 0
-170 30 0 30 0 0 61 0 60 22 -15 c96 -67 192 92 122 200 -11 17 -67 48 -78 44
-1 -1 -16 -7 -33 -15z m51 -61 c19 -18 22 -94 4 -112 -19 -19 -66 -15 -78 7
-26 50 -3 121 40 121 10 0 26 -7 34 -16z"/>
<path d="M6574 336 c-30 -13 -44 -33 -44 -62 0 -18 46 -19 57 0 12 21 47 28
68 13 26 -20 12 -35 -40 -43 -62 -9 -95 -36 -95 -80 0 -64 72 -97 128 -58 12
8 22 10 22 5 0 -6 15 -11 33 -11 l32 0 -4 97 c-1 54 -7 106 -12 115 -9 16 -67
38 -99 38 -8 -1 -29 -7 -46 -14z m96 -144 c0 -27 -34 -54 -62 -50 -31 4 -30
39 2 55 36 18 60 16 60 -5z"/>
<path d="M8220 343 c-8 -3 -23 -12 -32 -21 -16 -14 -18 -13 -18 1 0 12 -9 17
-30 17 l-30 0 0 -170 0 -170 30 0 30 0 0 60 c0 61 8 72 30 45 17 -20 70 -19
96 3 33 26 44 56 44 116 0 47 -4 60 -27 85 -28 31 -66 44 -93 34z m44 -75 c18
-26 21 -71 6 -99 -13 -24 -62 -26 -81 -3 -17 20 -16 88 1 109 18 22 57 18 74
-7z"/>
<path d="M4040 220 l0 -120 30 0 30 0 0 120 0 120 -30 0 -30 0 0 -120z"/>
<path d="M4967 333 c-4 -3 -7 -57 -7 -120 l0 -113 35 0 35 0 0 120 0 120 -28
0 c-16 0 -32 -3 -35 -7z"/>
<path d="M8390 220 l0 -120 30 0 30 0 0 73 c0 80 15 107 58 107 18 0 22 6 22
30 0 24 -4 30 -22 30 -12 0 -30 -7 -40 -17 -17 -15 -18 -15 -18 0 0 12 -9 17
-30 17 l-30 0 0 -120z"/>
<path d="M8560 221 l0 -121 35 0 36 0 -3 118 -3 117 -32 3 -33 3 0 -120z"/>
<path d="M8687 333 c-4 -3 -7 -57 -7 -120 l0 -113 35 0 35 0 0 84 c0 91 10
110 52 104 22 -3 23 -8 26 -96 l3 -92 34 0 35 0 0 91 c0 86 -9 125 -34 141
-16 11 -74 10 -96 -2 -13 -7 -21 -7 -25 0 -7 11 -48 14 -58 3z"/>
</g>
</svg>
