<?xml version="1.0" standalone="no"?>
<!DOCTYPE svg PUBLIC "-//W3C//DTD SVG 20010904//EN"
 "http://www.w3.org/TR/2001/REC-SVG-20010904/DTD/svg10.dtd">
<svg version="1.0" xmlns="http://www.w3.org/2000/svg"
 width="512.000000pt" height="512.000000pt" viewBox="0 0 512.000000 512.000000"
 preserveAspectRatio="xMidYMid meet">

<g transform="translate(0.000000,512.000000) scale(0.100000,-0.100000)"
fill="#000000" stroke="none">
<path d="M1040 5014 c-102 -20 -190 -64 -264 -133 -65 -61 -225 -274 -232
-309 -5 -22 2 -37 30 -71 20 -24 36 -44 36 -46 0 -2 -21 -13 -47 -26 -58 -28
-154 -122 -212 -208 -97 -143 -151 -317 -151 -487 0 -104 35 -691 45 -751 13
-78 92 -186 178 -244 90 -59 156 -76 342 -83 88 -4 193 -9 234 -12 l74 -6
-439 -223 c-241 -123 -447 -233 -456 -245 -44 -54 -17 -92 111 -164 150 -85
122 -83 347 -19 l71 21 67 -59 c37 -33 75 -59 84 -59 10 0 103 25 207 55 l190
54 167 -31 c115 -22 169 -36 173 -46 3 -8 4 -17 2 -19 -3 -2 -38 2 -78 8 -92
14 -337 4 -359 -16 -8 -7 -33 -18 -55 -25 -80 -25 -195 -91 -280 -160 -48 -38
-91 -70 -95 -70 -4 0 -16 -17 -25 -37 -10 -21 -31 -57 -47 -81 -46 -67 -96
-183 -117 -270 -10 -44 -24 -89 -30 -100 -8 -15 -7 -54 3 -150 16 -144 35
-228 70 -307 13 -29 27 -67 31 -84 3 -17 16 -39 28 -48 12 -10 33 -31 45 -48
52 -69 152 -161 222 -206 41 -27 90 -60 109 -74 19 -14 44 -25 56 -25 12 0 57
-10 101 -22 67 -19 104 -22 250 -21 138 0 176 3 200 16 16 9 64 30 106 47 89
36 179 92 246 153 26 23 56 47 67 53 11 6 27 24 36 41 8 16 29 52 47 79 49 78
100 195 121 281 10 43 24 90 30 106 7 18 7 35 1 53 -6 14 -10 52 -10 85 0 85
-26 201 -66 294 -19 45 -34 89 -34 98 0 10 -16 33 -35 53 -19 19 -35 38 -35
43 0 4 62 25 138 46 75 21 142 41 148 44 7 3 165 147 353 320 212 194 344 323
347 338 9 34 4 42 -147 262 l-132 194 11 125 c7 69 14 128 17 130 2 2 83 -47
179 -109 118 -77 174 -119 170 -128 -19 -55 -35 -204 -31 -303 3 -96 9 -126
36 -202 43 -118 80 -191 138 -268 26 -35 54 -76 62 -91 8 -14 23 -29 33 -33
11 -3 53 -30 94 -59 84 -61 172 -105 259 -130 33 -9 71 -23 85 -30 20 -10 61
-11 185 -5 140 7 172 12 253 39 51 17 102 31 112 31 11 0 34 13 52 28 18 15
56 44 83 64 62 45 170 157 215 223 19 28 43 57 53 65 10 9 22 34 27 55 4 22
20 81 35 130 36 123 50 359 24 420 -9 22 -24 65 -34 95 -27 84 -90 203 -139
263 -24 29 -47 64 -51 76 -3 11 -21 29 -38 38 -18 9 -54 33 -82 54 -75 56
-170 104 -265 134 -46 14 -89 30 -95 35 -14 11 -247 4 -326 -10 -34 -6 -92
-22 -129 -36 -37 -13 -76 -24 -87 -24 -11 0 -42 -17 -68 -37 -26 -21 -72 -57
-101 -80 -30 -24 -58 -43 -63 -43 -14 0 -271 171 -271 181 0 13 86 68 153 99
60 27 85 33 248 64 42 8 102 26 133 41 104 49 226 183 226 247 0 30 -38 78
-62 78 -7 0 -101 11 -208 25 -228 29 -303 31 -408 9 -112 -23 -187 -58 -371
-172 l-164 -102 -51 32 c-28 18 -96 62 -151 99 -134 89 -160 101 -219 103 -28
2 -60 8 -72 14 -12 7 -212 19 -510 32 -269 11 -495 23 -501 25 -7 2 -13 8 -13
13 0 5 61 45 136 88 75 43 140 86 144 94 4 8 20 78 34 154 14 77 27 141 29
143 2 1 69 -9 149 -24 161 -30 188 -27 210 22 9 21 6 43 -16 124 -18 63 -36
107 -49 119 -34 31 -476 273 -537 294 -54 19 -191 31 -240 22z m160 -165 c37
-8 486 -247 478 -254 -2 -1 -93 8 -203 21 -224 26 -288 29 -315 14 -22 -12
-34 -47 -55 -162 -20 -106 -17 -113 78 -193 37 -32 64 -61 60 -65 -4 -4 -33
-22 -64 -39 l-57 -32 -168 183 c-92 101 -181 197 -197 215 l-30 32 67 90 c38
50 82 102 98 116 85 72 199 99 308 74z m160 -379 c0 -23 -22 -110 -28 -110 -4
0 -22 14 -40 31 -28 25 -32 35 -27 59 6 28 10 30 51 30 24 0 44 -4 44 -10z
m-601 -173 c8 -10 2 -17 -30 -31 -93 -41 -144 -124 -144 -231 1 -84 9 -102
117 -248 l80 -107 -7 -195 c-4 -108 -11 -197 -14 -200 -7 -4 -364 -55 -388
-55 -10 0 -13 56 -13 293 0 260 2 303 20 373 54 214 216 413 336 414 17 0 36
-6 43 -13z m122 -177 c10 -6 47 -52 81 -103 98 -147 138 -197 161 -206 12 -5
162 -14 332 -21 171 -7 312 -14 314 -16 2 -2 -63 -130 -73 -141 0 -1 -128 -9
-284 -19 -309 -19 -334 -17 -393 33 -31 26 -219 269 -259 335 -28 47 -26 84 9
119 31 31 75 38 112 19z m2669 -345 c62 -8 115 -17 117 -19 2 -2 -11 -13 -30
-25 -34 -21 -81 -33 -237 -64 -113 -23 -180 -52 -296 -128 -57 -38 -107 -69
-111 -69 -9 0 -142 84 -143 91 0 6 223 146 278 174 55 27 173 54 243 54 36 1
116 -6 179 -14z m-1476 -14 c24 -5 31 -14 43 -55 8 -26 12 -53 10 -60 -3 -6
-30 -29 -62 -50 -55 -39 -58 -39 -101 -28 -24 7 -57 18 -73 24 l-29 13 47 82
46 83 45 -1 c25 -1 58 -4 74 -8z m1077 -591 c464 -303 852 -559 862 -567 9 -9
17 -29 17 -44 0 -38 -26 -62 -64 -57 -20 3 -326 197 -848 538 -647 423 -816
539 -812 552 3 9 -2 41 -10 69 -19 64 -20 73 -2 66 7 -3 393 -254 857 -557z
m-2063 274 c23 -3 178 2 345 11 l302 18 131 -42 c72 -22 142 -41 156 -41 14 0
53 19 87 42 40 26 65 38 71 32 13 -13 2 -23 -243 -227 l-199 -166 -40 29 c-58
42 -102 54 -433 115 -165 31 -308 58 -317 61 -16 5 -18 19 -18 108 0 56 3 105
6 108 3 4 29 -4 57 -18 29 -13 71 -26 95 -30z m1274 -98 c17 -12 11 -33 -83
-298 l-101 -285 -130 -37 c-71 -21 -133 -34 -137 -30 -5 5 -23 62 -41 127 -33
116 -33 119 -14 136 41 39 477 401 483 401 3 0 14 -7 23 -14z m1745 -90 c1 -1
21 -40 45 -86 46 -91 70 -109 121 -96 42 10 63 50 50 96 l-10 39 41 -21 c38
-19 93 -56 140 -93 19 -15 19 -17 2 -110 -17 -89 -17 -97 -2 -121 20 -29 60
-47 88 -38 27 8 58 44 58 67 0 55 69 -79 85 -165 7 -35 4 -39 -64 -105 -76
-73 -86 -98 -55 -141 26 -38 61 -46 105 -24 l38 19 -6 -31 c-15 -88 -50 -196
-63 -196 -4 0 -45 -5 -91 -11 -101 -13 -129 -33 -129 -90 0 -45 36 -79 84 -79
l31 -1 -49 -45 c-27 -25 -69 -59 -93 -75 l-43 -30 -72 42 c-96 54 -129 59
-162 26 -36 -36 -35 -81 4 -117 l30 -28 -31 -6 c-18 -3 -71 -6 -118 -6 l-87 0
-34 73 c-46 98 -65 117 -111 117 -64 0 -93 -55 -64 -124 7 -16 -2 -13 -54 15
-35 19 -81 50 -103 69 l-40 35 18 92 c15 78 16 96 5 117 -34 62 -117 55 -144
-12 l-15 -37 -31 65 c-16 36 -35 85 -42 110 l-12 46 71 70 c78 75 89 106 56
153 -14 19 -7 16 38 -14 l55 -36 7 -65 c20 -199 150 -358 338 -415 56 -17 88
-20 166 -17 88 3 105 7 177 42 209 101 313 319 260 545 -21 87 -59 154 -126
223 -135 138 -360 181 -533 100 l-61 -28 -102 65 c-56 36 -101 70 -99 76 1 5
23 25 49 43 l46 33 84 -45 c94 -52 113 -55 151 -25 39 30 37 88 -4 122 l-30
26 42 5 c81 11 113 12 153 8 22 -3 41 -5 42 -6z m-1427 -135 c0 -9 -9 -96 -20
-194 -11 -109 -16 -187 -10 -200 4 -12 61 -98 125 -192 65 -93 119 -175 122
-181 2 -6 -30 -41 -70 -77 l-75 -67 -198 237 c-110 130 -204 244 -211 253 -10
14 3 59 73 256 46 131 89 249 94 261 9 23 10 22 90 -28 48 -30 80 -58 80 -68z
m-1477 -57 c383 -71 412 -80 459 -149 27 -40 97 -259 86 -271 -7 -7 -197 -64
-214 -64 -6 0 -20 32 -30 71 -25 95 -45 127 -86 133 -18 3 -202 13 -408 21
-206 9 -386 19 -400 22 -84 20 -165 87 -201 167 -29 63 -25 74 24 81 258 38
366 53 390 54 15 0 186 -29 380 -65z m2940 -221 c64 -20 148 -97 178 -165 32
-72 33 -192 2 -259 -107 -234 -427 -257 -565 -40 -43 69 -35 77 33 31 81 -56
119 -70 181 -70 66 0 124 26 165 73 41 47 56 96 51 167 -6 84 -38 126 -155
205 -59 39 -91 66 -82 69 46 16 118 12 192 -11z m-713 -199 c0 -2 -11 -2 -25
2 -16 4 -36 -1 -58 -15 l-34 -21 4 28 c12 78 7 75 63 41 28 -17 50 -33 50 -35z
m-1006 -291 c113 -136 205 -251 204 -255 -2 -4 -52 -52 -112 -107 l-109 -99
-34 52 c-59 89 -127 135 -234 160 -33 8 -63 17 -65 19 -6 6 -114 384 -114 399
0 13 190 74 236 77 16 1 72 -60 228 -246z m-1061 210 c3 -16 4 -29 2 -31 -10
-10 -257 -73 -263 -67 -4 4 -2 10 3 12 6 2 60 28 120 58 61 29 115 54 121 54
7 1 14 -11 17 -26z m508 -320 c49 -171 74 -242 88 -254 11 -9 51 -22 88 -29
120 -20 176 -56 208 -133 8 -20 14 -37 13 -37 -2 0 -94 -27 -205 -59 l-202
-58 -10 26 c-37 93 -271 715 -271 721 0 7 212 70 219 64 2 -2 34 -110 72 -241z
m-872 102 c42 -44 59 -55 85 -55 17 0 99 20 181 44 83 25 153 42 156 38 9 -9
101 -254 97 -256 -2 -2 -64 8 -138 22 l-135 25 -179 -51 -179 -51 -108 101
c-60 56 -106 104 -103 107 6 6 255 129 265 130 3 1 29 -24 58 -54z m-490 -227
c-44 -12 -67 -14 -80 -7 -11 5 -19 12 -19 14 0 3 24 18 52 34 l53 30 28 -27
28 -26 -62 -18z m1006 -369 c33 -6 67 -14 74 -19 10 -6 -5 -33 -64 -109 l-77
-101 -57 0 c-125 0 -244 -51 -336 -144 -194 -194 -189 -498 9 -684 100 -93
196 -131 332 -132 214 0 405 146 460 355 22 79 17 199 -9 277 l-23 67 73 96
c68 87 93 110 93 86 0 -6 -16 -44 -35 -87 -19 -42 -35 -89 -35 -105 0 -70 88
-94 139 -38 l28 30 12 -57 c6 -32 11 -85 11 -118 l0 -61 -76 -40 c-42 -22 -82
-49 -90 -60 -22 -30 -17 -73 11 -100 26 -27 49 -31 89 -15 14 5 26 7 26 3 0
-14 -72 -150 -93 -175 l-22 -26 -85 11 c-106 13 -137 6 -154 -34 -23 -56 -3
-96 59 -116 30 -10 29 -10 -55 -51 -128 -63 -123 -63 -208 13 -80 71 -111 81
-150 45 -34 -32 -38 -67 -13 -100 11 -16 21 -32 21 -36 0 -9 -95 5 -163 23
-66 18 -68 21 -87 130 -9 58 -17 77 -37 93 -26 20 -58 25 -88 14 -24 -10 -48
-62 -40 -91 l6 -25 -31 22 c-18 13 -56 52 -85 87 l-53 65 39 81 c45 92 47 114
18 151 -31 39 -89 37 -122 -6 l-25 -31 -11 54 c-6 30 -13 82 -17 115 l-6 62
86 47 c47 26 91 55 96 65 38 71 -40 147 -112 109 -18 -10 -19 -8 -13 13 11 35
62 129 88 161 22 27 23 27 82 17 33 -5 78 -10 99 -10 97 0 121 111 34 150
l-40 18 54 30 c29 16 76 38 104 48 l51 18 76 -67 c85 -74 110 -81 153 -44 35
31 37 77 4 112 l-23 25 23 0 c13 0 51 -5 85 -11z m260 -241 c14 -6 25 -14 24
-17 0 -3 -80 -107 -178 -231 -157 -200 -180 -225 -208 -228 -36 -4 -73 26 -73
58 0 17 142 215 309 429 l65 84 18 -42 c10 -24 28 -46 43 -53z m-515 -238
c-81 -110 -95 -165 -65 -251 32 -89 117 -149 215 -148 86 0 132 29 215 137 39
50 74 91 79 91 5 1 6 -34 4 -76 -7 -124 -68 -217 -176 -270 -48 -24 -70 -28
-137 -28 -67 0 -89 4 -137 28 -192 94 -242 341 -100 498 39 44 125 99 154 99
5 0 -19 -36 -52 -80z"/>
<path d="M3324 1755 c-21 -14 -229 -244 -272 -299 -27 -36 -28 -76 -2 -103 26
-28 52 -36 83 -24 31 12 295 307 303 339 10 36 -4 71 -36 87 -36 19 -50 19
-76 0z"/>
<path d="M3510 1478 c-113 -125 -127 -149 -116 -193 8 -30 59 -59 91 -51 23 6
203 194 239 249 35 53 -3 117 -71 117 -28 0 -45 -14 -143 -122z"/>
<path d="M2801 1173 c-16 -16 -70 -75 -120 -132 -99 -113 -108 -137 -70 -185
16 -20 29 -26 59 -26 37 0 44 5 149 124 60 69 112 134 116 146 15 46 -31 100
-85 100 -11 0 -33 -12 -49 -27z"/>
<path d="M3172 1103 c-88 -94 -109 -132 -90 -171 19 -38 62 -57 97 -42 27 11
144 132 168 174 31 53 -7 116 -69 116 -28 0 -44 -12 -106 -77z"/>
</g>
</svg>
