<?xml version="1.0" encoding="UTF-8"?>
<svg xmlns="http://www.w3.org/2000/svg" xmlns:xlink="http://www.w3.org/1999/xlink" width="75px" height="55px" viewBox="0 0 74 55" version="1.1">
<g id="surface1">
<path style=" stroke:none;fill-rule:nonzero;fill:rgb(100%,100%,100%);fill-opacity:1;" d="M 58.933594 46.714844 C 58.933594 46.40625 58.691406 46.15625 58.390625 46.15625 C 58.089844 46.15625 57.847656 46.40625 57.847656 46.714844 C 57.847656 47.023438 58.089844 47.273438 58.390625 47.273438 C 58.691406 47.273438 58.933594 47.023438 58.933594 46.714844 Z M 58.933594 46.714844 "/>
<path style=" stroke:none;fill-rule:nonzero;fill:rgb(100%,100%,100%);fill-opacity:1;" d="M 62.914062 22.695312 C 63.496094 22.289062 63.882812 21.601562 63.882812 20.820312 L 63.882812 16.320312 C 63.882812 15.085938 62.910156 14.109375 61.71875 14.148438 L 35.699219 15.117188 C 34.507812 15.160156 33.53125 16.207031 33.53125 17.449219 L 33.53125 20.820312 C 33.53125 22.058594 34.507812 23.074219 35.699219 23.074219 L 37.042969 23.074219 L 38.242188 24.300781 C 38.316406 24.382812 40.441406 26.710938 40.441406 31.558594 C 40.441406 33.742188 38.445312 35.515625 35.996094 35.515625 L 27.285156 35.515625 C 26.515625 34.660156 25.167969 30.320312 25.167969 23.085938 C 25.167969 15.664062 27.9375 11.859375 27.964844 11.820312 L 28.523438 11.066406 L 29.136719 11.328125 C 29.511719 11.515625 29.957031 11.550781 30.367188 11.355469 C 31.09375 11.003906 31.410156 10.117188 31.070312 9.363281 C 30.945312 9.105469 30.746094 8.890625 30.5 8.746094 L 28.277344 7.769531 C 28.101562 6.332031 27.105469 5.179688 25.769531 4.960938 C 25.503906 4.914062 25.195312 4.714844 25.171875 4.625 C 24.570312 2.3125 23.039062 1.140625 20.617188 1.140625 L 17.28125 1.140625 L 17.257812 2.925781 L 16.070312 2.925781 L 16.070312 4.042969 C 15.210938 4.042969 14.511719 5.289062 14.511719 6.832031 C 14.511719 8.367188 15.210938 9.621094 16.070312 9.621094 L 16.070312 10.734375 L 17.257812 10.734375 L 17.257812 12.519531 L 19.589844 12.519531 C 16.765625 16.714844 12.101562 24.386719 12.101562 29.257812 C 12.101562 29.46875 12.121094 29.679688 12.15625 29.886719 C 8.171875 30.425781 4.539062 32.878906 2.609375 36.429688 C 2.230469 37.125 2.214844 37.90625 2.5625 38.570312 C 3.105469 39.609375 4.203125 39.945312 5.902344 40.136719 C 5.417969 41.265625 5.164062 42.480469 5.164062 43.707031 C 5.164062 48.636719 9.046875 52.632812 13.835938 52.632812 C 18.253906 52.632812 21.894531 49.226562 22.429688 44.832031 L 25.082031 44.832031 C 25.359375 44.832031 25.585938 44.945312 26.035156 45.183594 C 26.664062 45.519531 27.527344 45.980469 28.773438 45.980469 L 50.019531 45.980469 C 50.996094 49.804688 54.367188 52.632812 58.390625 52.632812 C 62.414062 52.632812 65.785156 49.804688 66.761719 45.980469 L 71.6875 45.980469 L 71.6875 44.195312 C 71.6875 32.863281 65.484375 25.332031 62.914062 22.695312 M 34.738281 17.347656 C 34.699219 17.347656 34.667969 17.367188 34.628906 17.371094 C 34.671875 16.765625 35.152344 16.253906 35.734375 16.230469 L 61.792969 15.265625 C 62.359375 15.265625 62.796875 15.730469 62.796875 16.320312 L 62.796875 16.378906 Z M 13.835938 48.171875 C 11.441406 48.171875 9.5 46.171875 9.5 43.707031 C 9.5 42.484375 9.988281 41.390625 10.765625 40.585938 C 11.683594 40.714844 12.507812 40.898438 12.992188 41.167969 C 13.566406 41.488281 14.078125 41.882812 14.621094 42.300781 C 15.128906 42.691406 15.667969 43.097656 16.273438 43.46875 C 16.191406 43.640625 16.199219 43.839844 16.296875 44.003906 C 16.394531 44.164062 16.570312 44.265625 16.757812 44.265625 C 16.960938 44.265625 17.128906 44.148438 17.222656 43.984375 C 17.5 44.113281 17.792969 44.234375 18.109375 44.339844 C 17.808594 46.5 16.019531 48.171875 13.835938 48.171875 M 58.390625 48.171875 C 56.808594 48.171875 55.449219 47.285156 54.695312 45.980469 L 55.8125 45.980469 C 56.042969 46.335938 56.179688 46.394531 56.324219 46.394531 C 56.46875 46.394531 56.609375 46.335938 56.707031 46.230469 L 59.945312 45.980469 C 60.175781 46.335938 60.3125 46.394531 60.457031 46.394531 C 60.601562 46.394531 60.742188 46.335938 60.839844 46.230469 L 62.085938 45.980469 C 61.332031 47.285156 59.972656 48.171875 58.390625 48.171875 M 28.773438 44.195312 C 27.164062 44.195312 26.542969 43.046875 25.082031 43.046875 L 21.363281 43.046875 C 17.324219 43.046875 16.207031 40.933594 13.820312 39.601562 C 10.992188 38.023438 3.203125 38.996094 4.125 37.304688 C 5.984375 33.875 9.835938 31.558594 13.820312 31.558594 C 14.132812 31.558594 14.4375 31.582031 14.746094 31.609375 L 14.742188 31.605469 C 14.742188 31.605469 13.835938 30.265625 13.835938 29.261719 C 13.835938 23.085938 22.980469 10.734375 22.980469 10.734375 L 18.992188 10.734375 L 18.992188 2.929688 L 20.617188 2.929688 C 21.507812 2.929688 22.953125 3 23.496094 5.089844 C 23.746094 6.046875 24.679688 6.527344 25.316406 6.683594 C 24.6875 7.035156 24.253906 7.710938 24.253906 8.503906 C 24.253906 9.652344 25.160156 10.585938 26.277344 10.585938 C 26.382812 10.585938 26.480469 10.570312 26.578125 10.554688 L 26.578125 10.738281 L 26.585938 10.738281 C 26.585938 10.738281 23.429688 14.972656 23.429688 23.089844 C 23.429688 30.945312 25.042969 37.304688 27.035156 37.304688 L 35.992188 37.304688 C 39.410156 37.304688 42.175781 34.738281 42.175781 31.558594 C 42.175781 26.191406 39.808594 23.414062 39.496094 23.074219 L 60.765625 23.074219 C 61.210938 23.460938 69.953125 31.230469 69.953125 44.199219 L 28.773438 44.199219 Z M 28.773438 44.195312 "/>
<path style=" stroke:none;fill-rule:nonzero;fill:rgb(100%,100%,100%);fill-opacity:1;" d="M 54.429688 25.398438 C 52.933594 25.257812 51.367188 25.296875 49.867188 25.71875 C 48.375 26.140625 46.957031 26.917969 45.824219 28.023438 C 44.699219 29.132812 43.839844 30.527344 43.40625 32.050781 C 42.96875 33.558594 42.863281 35.148438 43.089844 36.703125 C 43.328125 38.21875 43.839844 39.679688 44.601562 41.007812 C 43.507812 38.207031 43.199219 35.058594 44.199219 32.328125 C 45.164062 29.59375 47.441406 27.5 50.152344 26.792969 C 51.5 26.394531 52.917969 26.351562 54.347656 26.449219 C 55.773438 26.542969 57.1875 26.832031 58.574219 27.246094 C 59.957031 27.664062 61.300781 28.246094 62.585938 28.945312 C 63.886719 29.625 65.121094 30.445312 66.28125 31.378906 C 64.242188 29.171875 61.652344 27.503906 58.835938 26.4375 C 57.429688 25.886719 55.9375 25.566406 54.429688 25.398438 "/>
<path style=" stroke:none;fill-rule:nonzero;fill:rgb(100%,100%,100%);fill-opacity:1;" d="M 55.8125 27.570312 C 54.40625 27.421875 52.949219 27.421875 51.519531 27.714844 C 50.097656 28.019531 48.710938 28.609375 47.535156 29.519531 C 46.371094 30.4375 45.402344 31.65625 44.875 33.066406 C 44.347656 34.460938 44.175781 35.96875 44.375 37.449219 C 44.597656 38.882812 45.109375 40.253906 45.882812 41.476562 C 44.753906 38.886719 44.476562 35.867188 45.640625 33.410156 C 46.769531 30.945312 49.148438 29.308594 51.734375 28.808594 C 53.019531 28.519531 54.371094 28.511719 55.71875 28.617188 C 57.066406 28.707031 58.398438 28.980469 59.71875 29.328125 C 61.03125 29.691406 62.3125 30.191406 63.546875 30.800781 C 64.808594 31.390625 66.007812 32.097656 67.136719 32.914062 C 65.128906 30.925781 62.628906 29.464844 59.960938 28.515625 C 58.617188 28.039062 57.226562 27.722656 55.8125 27.570312 M 17.726562 32.660156 C 16.003906 32.183594 14.175781 32.28125 12.507812 32.9375 C 10.871094 33.558594 9.46875 34.6875 8.503906 36.164062 C 9.722656 35.039062 11.183594 34.214844 12.769531 33.761719 C 14.308594 33.332031 15.929688 33.296875 17.441406 33.734375 C 18.957031 34.144531 20.335938 35.027344 21.449219 36.199219 C 22.585938 37.425781 23.417969 38.910156 23.882812 40.523438 C 23.808594 38.742188 23.179688 37.027344 22.085938 35.625 C 20.980469 34.195312 19.453125 33.15625 17.726562 32.660156 "/>
<path style=" stroke:none;fill-rule:nonzero;fill:rgb(100%,100%,100%);fill-opacity:1;" d="M 11.453125 43.707031 C 11.453125 43.398438 11.210938 43.152344 10.910156 43.152344 C 10.613281 43.152344 10.371094 43.398438 10.371094 43.707031 C 10.371094 44.015625 10.613281 44.265625 10.910156 44.265625 C 11.210938 44.265625 11.453125 44.015625 11.453125 43.707031 Z M 11.453125 43.707031 "/>
<path style=" stroke:none;fill-rule:nonzero;fill:rgb(100%,100%,100%);fill-opacity:1;" d="M 11.386719 45.4375 C 11.171875 45.660156 11.171875 46.011719 11.386719 46.230469 C 11.597656 46.449219 11.9375 46.449219 12.152344 46.230469 C 12.363281 46.011719 12.363281 45.660156 12.152344 45.4375 C 12.050781 45.335938 11.914062 45.277344 11.769531 45.277344 C 11.625 45.277344 11.484375 45.335938 11.386719 45.4375 "/>
<path style=" stroke:none;fill-rule:nonzero;fill:rgb(100%,100%,100%);fill-opacity:1;" d="M 14.375 46.714844 C 14.375 46.40625 14.132812 46.15625 13.832031 46.15625 C 13.535156 46.15625 13.292969 46.40625 13.292969 46.714844 C 13.292969 47.023438 13.535156 47.273438 13.832031 47.273438 C 14.132812 47.273438 14.375 47.023438 14.375 46.714844 Z M 14.375 46.714844 "/>
<path style=" stroke:none;fill-rule:nonzero;fill:rgb(100%,100%,100%);fill-opacity:1;" d="M 15.519531 45.441406 C 15.304688 45.65625 15.304688 46.011719 15.519531 46.230469 C 15.730469 46.449219 16.074219 46.449219 16.285156 46.230469 C 16.5 46.011719 16.5 45.660156 16.285156 45.441406 C 16.183594 45.335938 16.042969 45.277344 15.902344 45.277344 C 15.757812 45.277344 15.617188 45.335938 15.519531 45.441406 M 11.386719 41.1875 C 11.171875 41.40625 11.171875 41.757812 11.386719 41.976562 C 11.597656 42.195312 11.941406 42.195312 12.152344 41.976562 C 12.363281 41.757812 12.363281 41.40625 12.152344 41.1875 C 12.054688 41.082031 11.914062 41.023438 11.769531 41.023438 C 11.625 41.023438 11.484375 41.082031 11.386719 41.1875 "/>
<path style=" stroke:none;fill-rule:nonzero;fill:rgb(100%,100%,100%);fill-opacity:1;" d="M 14.921875 43.707031 C 14.921875 43.09375 14.433594 42.59375 13.835938 42.59375 C 13.238281 42.59375 12.75 43.09375 12.75 43.707031 C 12.75 44.324219 13.238281 44.824219 13.835938 44.824219 C 14.433594 44.824219 14.921875 44.324219 14.921875 43.707031 Z M 14.921875 43.707031 "/>
</g>
</svg>
